<svg width="248" height="127" viewBox="0 0 248 127" fill="none" xmlns="http://www.w3.org/2000/svg">
<path d="M4.36012 126.396C4.42802 126.526 4.49655 126.657 4.56572 126.789L213.754 126.725C213.754 126.725 213.854 126.618 214.039 126.408L214.051 126.396C219.476 120.172 224.4 110.969 226.492 101.869C229.542 88.6952 226.968 75.7711 218.489 63.8556C209.161 50.7411 196.421 40.3246 180.268 40.532H180.253C171.637 40.6466 163.39 43.7942 156.17 48.6086C149.31 53.1843 137.418 48.4031 130.248 43.495C121.851 37.7744 114.741 29.4024 109.274 20.8627C89.9676 -9.23356 44.5957 -3.91733 23.1634 18.7339C11.7838 30.7385 7.30996 47.03 12.1274 65.7978C13.0317 69.3205 13.5381 72.9947 13.3239 76.6357C12.1835 96.4925 -8.89184 100.902 4.36012 126.396Z" fill="#F0F7FF"/>
<g opacity="0.5">
<path d="M90.0199 65.7952C89.6583 67.1918 89.3688 68.6059 89.1527 70.0319C89.0024 71.0465 88.8976 72.025 88.8386 72.9675V73.0291L13.1704 70.2422L11.8196 64.8389L10.8065 58.7603L10.1311 54.7078V45.9276L12.1573 37.1473L15.872 28.0293L78.9839 18.7343C79.944 19.7443 80.86 20.7958 81.732 21.8886C90.5273 32.8884 94.6536 47.7491 90.0199 65.7952Z" fill="#D8E8FC"/>
<path d="M90.0199 65.7954C89.6583 67.1919 89.3688 68.606 89.1527 70.032L12.8325 69.2291L10.8063 58.4227L10.1636 52.6817L10.1636 46.9408L12.1571 37.8228L14.0145 33.0949L15.8719 28.3671L81.732 21.8887C90.5273 32.8885 94.6536 47.7492 90.0199 65.7954Z" fill="#B1D2F9"/>
<path d="M214.401 76.6327C214.332 75.434 214.336 74.2323 214.413 73.0342V72.9727H130.332C129.507 72.9768 128.716 73.3006 128.126 73.8753C127.537 74.45 127.196 75.2304 127.175 76.0512C127.175 76.0834 127.175 76.1147 127.175 76.1459V76.6345L214.401 76.6327Z" fill="#B1D2F9"/>
</g>
<path d="M139.826 67.3052C139.826 67.3052 137.221 66.3128 135.719 67.5637C134.217 68.8146 133.188 75.252 133.703 76.4528C134.218 77.6535 135.719 78.3685 135.719 78.3685C135.719 78.3685 135.405 77.6611 135.519 77.1109C135.519 77.1109 135.949 78.502 137.093 78.7672C138.237 79.0323 142.312 78.7047 143.1 78.3685C144.011 77.9812 144.528 77.5797 144.759 76.4528C144.99 75.3259 145.906 65.3213 139.826 67.3052Z" fill="#B5493F"/>
<path d="M152.426 126.384C152.406 126.385 152.386 126.385 152.366 126.384C152.291 126.387 152.217 126.365 152.156 126.322C152.095 126.278 152.051 126.216 152.03 126.144L148.215 109.736L147.938 108.54L149.242 108.484L149.668 110.72L152.609 126.156C152.613 126.183 152.611 126.211 152.604 126.237C152.597 126.263 152.584 126.288 152.567 126.309C152.55 126.331 152.528 126.348 152.504 126.361C152.48 126.374 152.453 126.382 152.426 126.384Z" fill="#E5BD9E"/>
<path d="M133.039 108.543L132.411 111.244L128.946 126.148C128.925 126.22 128.88 126.283 128.819 126.326C128.758 126.37 128.684 126.391 128.609 126.388C128.589 126.389 128.569 126.389 128.549 126.388C128.522 126.385 128.496 126.378 128.472 126.365C128.448 126.352 128.427 126.335 128.41 126.314C128.393 126.293 128.38 126.268 128.373 126.242C128.366 126.216 128.364 126.189 128.367 126.162L131.502 109.706L131.735 108.49L133.039 108.543Z" fill="#E5BD9E"/>
<path d="M133.039 108.544L132.411 111.245C132.392 110.935 132.3 110.633 132.142 110.365C131.984 110.098 131.764 109.871 131.502 109.703L131.735 108.487L133.039 108.544Z" fill="#CC9E7F"/>
<path d="M149.666 110.724C149.02 109.777 148.238 109.777 148.213 109.74L147.936 108.545L149.24 108.488L149.666 110.724Z" fill="#CC9E7F"/>
<path d="M130.445 108.662H149.338C149.786 108.662 150.216 108.485 150.533 108.17C150.85 107.854 151.028 107.426 151.028 106.98V105.63C151.028 105.184 150.85 104.756 150.533 104.44C150.216 104.124 149.785 103.947 149.337 103.947H130.445C129.996 103.947 129.566 104.124 129.249 104.44C128.932 104.756 128.753 105.184 128.753 105.63V106.981C128.754 107.202 128.797 107.421 128.882 107.625C128.968 107.829 129.092 108.014 129.249 108.17C129.406 108.326 129.593 108.45 129.798 108.534C130.003 108.619 130.223 108.662 130.445 108.662Z" fill="#C65447"/>
<path d="M146.502 98.3968C145.943 95.2965 144.313 91.7681 144.313 91.7681C145.499 86.825 144.288 81.2663 144.288 81.2663C143.636 81.0922 142.972 80.9656 142.301 80.8876C142.217 80.4463 141.977 79.1196 141.875 77.9776C141.864 77.8444 141.855 77.7146 141.847 77.5884C141.826 77.3009 141.824 77.0124 141.842 76.7247L141.007 76.7797L137.568 77.0079L137.422 77.0173C137.422 77.0173 137.443 77.3242 137.448 77.7872C137.459 78.6177 137.419 79.9482 137.119 80.9018C135.639 81.0542 134.637 81.2692 134.637 81.2692C133.669 81.433 133.876 87.4301 135.684 92.092C136.517 94.2378 134.161 97.5588 134.161 98.3987C134.161 99.2387 146.705 99.5171 146.502 98.3968Z" fill="#FFB27D"/>
<path d="M141.872 77.9756C141.549 78.3544 140.73 79.1659 139.698 79.1839C138.347 79.2076 137.445 77.7853 137.445 77.7853C137.467 77.5231 137.507 77.2627 137.565 77.0059L141.004 76.7777C141.297 77.0332 141.577 77.3031 141.844 77.5864C141.852 77.712 141.861 77.8418 141.872 77.9756Z" fill="#EF9E67"/>
<path d="M139.674 78.3802C137.803 78.3802 136.272 76.8414 136.272 74.9608V72.1114C136.27 71.5041 136.511 70.921 136.94 70.4895C137.37 70.058 137.953 69.8131 138.564 69.8083H140.627C141.238 69.8131 141.821 70.058 142.251 70.4895C142.68 70.921 142.921 71.5041 142.919 72.1114V75.1189C142.921 75.9787 142.581 76.8042 141.973 77.4153C141.365 78.0263 140.539 78.3732 139.674 78.3802Z" fill="#FFB27D"/>
<path d="M138.55 76.2561C138.55 76.2561 138.621 76.7088 139.725 76.7239C139.725 76.7239 140.652 76.7362 140.66 76.2505C140.66 76.2467 139.792 75.8309 138.55 76.2561Z" fill="white"/>
<path d="M130.424 103.946C130.424 103.946 132.708 98.6215 134.809 97.5808C136.91 96.5401 145.251 97.4643 146.504 98.3971C147.756 99.3298 149.359 103.946 149.359 103.946H130.424Z" fill="#22356B"/>
<path d="M132.511 103.946C132.511 103.946 133.328 100.752 135.144 100.612C136.96 100.473 139.384 102.163 140.246 101.707C141.107 101.252 142.753 100.112 144.28 100.403C145.807 100.694 148.104 103.946 148.104 103.946H132.511Z" fill="#1B2E59"/>
<path d="M142.469 123.854L140.308 124.007C140.308 124.007 139.095 120.598 137.738 116.621C137.612 116.249 137.483 115.872 137.357 115.491C136.237 112.177 135.09 108.65 134.501 106.469C134.36 105.946 134.255 105.471 134.182 105.04C133.528 101.269 135.211 100.854 135.609 100.756C136.058 100.647 138.762 99.2025 140.599 104.07C141.22 105.708 142.229 110.266 142.196 114.581C142.174 118.728 142.469 123.854 142.469 123.854Z" fill="#FFB27D"/>
<path d="M137.742 116.623C137.616 116.251 137.487 115.874 137.361 115.493C136.241 112.179 135.094 108.652 134.505 106.47C134.364 105.948 134.259 105.473 134.186 105.041C134.242 105.195 137.865 114.967 140.96 115.529C142.946 115.89 140.082 116.342 137.742 116.623Z" fill="#EF9E67"/>
<path d="M142.469 123.854L140.302 124.327L139.75 124.45C139.75 124.45 138.857 119.934 137.359 115.492C138.313 115.543 139.27 115.451 140.196 115.219C140.817 115.068 141.421 114.857 141.999 114.588C142.442 119.184 142.469 123.854 142.469 123.854Z" fill="#E9F3FE"/>
<path d="M140.303 124.329L139.751 124.451C139.751 124.451 138.859 119.935 137.36 115.494C138.315 115.545 139.271 115.452 140.198 115.22C140.198 115.22 139.472 121.882 140.303 124.329Z" fill="#C7DCF2"/>
<path d="M142.952 125.05C142.981 125.152 143.005 125.247 143.026 125.334C143.038 125.38 143.04 125.427 143.033 125.473C143.026 125.52 143.01 125.564 142.985 125.604C142.961 125.644 142.928 125.679 142.89 125.706C142.851 125.734 142.808 125.753 142.762 125.763L140.244 126.306C140.155 126.325 140.061 126.308 139.984 126.259C139.907 126.21 139.852 126.133 139.832 126.044C139.796 125.884 139.769 125.723 139.751 125.56C139.707 125.192 139.707 124.82 139.751 124.452C139.757 124.4 139.775 124.35 139.804 124.306C139.833 124.262 139.871 124.225 139.917 124.198C141.082 123.516 141.943 123.63 142.264 123.706C142.306 123.716 142.347 123.735 142.382 123.761C142.417 123.787 142.447 123.819 142.469 123.857C142.678 124.234 142.841 124.634 142.952 125.05Z" fill="#22356B"/>
<path d="M142.352 123.793C142.352 123.793 141.937 123.355 141.072 123.445C140.822 123.471 140.581 123.558 140.373 123.698C140.164 123.838 139.993 124.027 139.875 124.248L139.762 124.404C139.777 124.37 140.116 123.406 141.058 123.306C141.321 123.27 141.589 123.302 141.836 123.398C142.084 123.493 142.302 123.65 142.472 123.854L142.352 123.793Z" fill="#22356B"/>
<path d="M142.952 125.05C142.981 125.152 143.005 125.247 143.026 125.334C143.038 125.379 143.04 125.427 143.033 125.473C143.026 125.52 143.01 125.564 142.985 125.604C142.961 125.644 142.928 125.679 142.89 125.706C142.851 125.733 142.808 125.753 142.762 125.763L140.244 126.306C140.155 126.325 140.061 126.308 139.984 126.259C139.907 126.21 139.852 126.133 139.832 126.044C139.796 125.884 139.769 125.723 139.751 125.56C139.751 125.56 140.037 126.095 141.568 125.744C142.49 125.529 142.829 125.242 142.952 125.05Z" fill="#22356B"/>
<path d="M150.275 94.3413L146.786 94.3981C146.518 93.7883 146.053 91.7551 145.592 90.5279C145.763 91.2779 145.932 92.0515 146.089 92.8119C146.705 95.7646 147.171 98.541 147.099 99.1357C146.933 100.49 141.667 99.88 140.31 99.5543C138.953 99.2285 135.867 99.9738 133.398 99.9264C131.978 99.8999 132.413 95.9265 133.039 92.561C133.187 91.7532 133.349 90.9796 133.498 90.3053C132.701 91.9 132.338 93.8669 132.145 94.3981C132.145 94.3981 128.736 94.1775 128.735 94.1689C128.619 93.5629 129.903 83.9778 132.514 82.0195C133.038 81.6031 133.641 81.2979 134.288 81.1224C134.934 80.947 135.61 80.9052 136.273 80.9996C136.273 80.9996 137.13 82.5327 139.605 82.6482C140.317 82.6883 141.03 82.5658 141.687 82.2903C142.345 82.0147 142.931 81.5934 143.4 81.0583C143.4 81.0583 145.468 81.1094 146.304 82.0195C147.14 82.9295 148.992 86.1918 150.275 94.3413Z" fill="#2B478B"/>
<path d="M147.096 99.1352C146.93 100.489 141.665 99.8795 140.307 99.5537C138.95 99.228 135.864 99.9732 133.395 99.9259C131.976 99.8994 132.411 95.9259 133.036 92.5604C133.036 92.5604 135.712 97.2678 139.047 97.2356C142.382 97.2034 146.091 92.8114 146.091 92.8114C146.705 95.764 147.168 98.5405 147.096 99.1352Z" fill="#233F77"/>
<path d="M137.315 80.0002C137.315 80.0002 138.476 82.2909 139.606 82.6517C139.606 82.6517 137.999 83.2625 135.655 80.9557C135.824 80.6657 136.065 80.4248 136.357 80.2571C136.648 80.0894 136.979 80.0008 137.315 80.0002Z" fill="#E6F1FF"/>
<path d="M142.188 80.0002C142.188 80.0002 140.736 82.2909 139.607 82.6517C139.607 82.6517 141.458 83.396 143.802 81.0892C143.802 81.0864 143.382 80.0258 142.188 80.0002Z" fill="#E6F1FF"/>
<path d="M139.443 82.6416C139.444 82.6056 139.455 82.5706 139.476 82.5412C139.497 82.5117 139.527 82.4891 139.56 82.476C139.594 82.463 139.631 82.4602 139.667 82.4679C139.702 82.4756 139.734 82.4935 139.76 82.5194C139.785 82.5453 139.802 82.5781 139.809 82.6135C139.815 82.649 139.811 82.6856 139.797 82.7189C139.783 82.7521 139.759 82.7805 139.729 82.8004C139.699 82.8204 139.663 82.831 139.627 82.831C139.578 82.8296 139.531 82.809 139.496 82.7736C139.462 82.7382 139.443 82.6909 139.443 82.6416Z" fill="#35488B"/>
<path d="M139.256 87.3519C139.256 87.2827 139.277 87.2151 139.316 87.1578C139.355 87.1004 139.41 87.0558 139.475 87.0295C139.539 87.0033 139.61 86.9967 139.678 87.0104C139.746 87.0241 139.809 87.0576 139.858 87.1067C139.907 87.1558 139.94 87.2182 139.954 87.2861C139.967 87.354 139.96 87.4244 139.933 87.4883C139.907 87.5522 139.861 87.6068 139.803 87.6452C139.746 87.6837 139.678 87.7042 139.608 87.7042C139.514 87.7037 139.425 87.6663 139.359 87.6003C139.293 87.5343 139.256 87.445 139.256 87.3519Z" fill="#233F77"/>
<path d="M139.256 93.0123C139.256 92.9432 139.278 92.8757 139.317 92.8185C139.356 92.7612 139.411 92.7167 139.475 92.6907C139.54 92.6646 139.61 92.658 139.678 92.6719C139.747 92.6857 139.809 92.7193 139.858 92.7684C139.907 92.8175 139.94 92.88 139.954 92.9478C139.967 93.0157 139.96 93.086 139.933 93.1499C139.906 93.2138 139.861 93.2683 139.803 93.3067C139.746 93.3451 139.678 93.3655 139.608 93.3655C139.514 93.365 139.425 93.3276 139.359 93.2614C139.293 93.1952 139.256 93.1056 139.256 93.0123Z" fill="#233F77"/>
<path d="M149.657 103.605L149.666 102.62C149.666 102.62 151.02 94.2556 150.082 93.9971C149.145 93.7386 147.38 94.6278 147.38 94.6278L147.936 102.62C147.927 102.804 147.899 102.986 147.855 103.165C147.831 103.17 147.807 103.174 147.784 103.181C146.864 103.444 147.417 105.346 148.103 105.38C148.607 105.405 149.258 104.646 149.7 104.385C149.892 104.268 149.836 103.738 149.657 103.605Z" fill="#EF9E67"/>
<path d="M146.783 94.3977C146.783 94.3977 146.565 95.5767 147.103 95.749C147.64 95.9214 150.387 96.0085 150.559 95.749C150.73 95.4896 150.492 93.5114 150.083 93.3655C149.674 93.2197 147.039 93.7566 146.783 94.3977Z" fill="#233F77"/>
<path d="M131.547 94.6269L130.992 102.619H129.262C129.262 102.619 127.907 94.2548 128.845 93.9962C129.783 93.7377 131.547 94.6269 131.547 94.6269Z" fill="#FFB27D"/>
<path d="M129.229 104.385C129.039 104.272 129.093 103.739 129.272 103.604C129.698 103.282 130.48 102.991 131.143 103.18C132.064 103.443 131.511 105.346 130.824 105.38C130.321 105.404 129.669 104.647 129.229 104.385Z" fill="#FFB27D"/>
<path d="M129.259 102.619L129.272 103.975C129.494 103.954 130.746 104.424 131.136 103.908C131.287 103.706 131.006 103.175 130.99 102.619C130.939 100.954 129.259 102.619 129.259 102.619Z" fill="#FFB27D"/>
<path d="M132.143 94.3977C132.143 94.3977 132.361 95.5767 131.823 95.749C131.285 95.9214 128.538 96.0085 128.367 95.749C128.196 95.4896 128.435 93.5114 128.843 93.3655C129.251 93.2197 131.889 93.7566 132.143 94.3977Z" fill="#233F77"/>
<path d="M140.042 70.2588C140.042 70.2588 140.554 72.0912 141.875 72.6082C141.875 72.6082 141.266 71.5523 141.48 71.0344C141.48 71.0344 142.065 73.1044 142.921 73.8156C142.921 73.8156 144.139 69.5258 140.664 69.3099C137.189 69.094 135.794 70.9273 135.773 72.2455C135.764 73.0489 135.935 73.8443 136.273 74.5741C136.273 74.5741 136.654 72.1376 138.177 71.4264C139.7 70.7152 140.042 70.2588 140.042 70.2588Z" fill="#B5493F"/>
<path d="M143.648 115.499C142.261 120.085 140.792 124.413 140.792 124.413L138.318 123.901C138.318 123.901 138.574 119.908 138.649 115.482C138.655 115.131 138.695 114.777 138.719 114.422C138.946 111.08 139.219 107.629 139.494 105.496C140.173 100.255 142.247 100.572 142.703 100.649C143.159 100.725 146.207 100.431 146.048 105.629C145.996 107.317 144.853 111.507 143.648 115.499Z" fill="#FFB27D"/>
<path d="M138.65 115.482C138.673 115.13 138.696 114.777 138.721 114.422C138.947 111.08 139.221 107.629 139.496 105.496C139.496 105.496 139.169 114.631 142.189 115.654C144.186 116.331 141.022 115.87 138.65 115.482Z" fill="#EF9E67"/>
<path d="M143.65 115.499C142.862 118.103 142.048 120.622 141.492 122.317C141.068 123.606 140.793 124.415 140.793 124.415L138.162 123.931C138.162 123.931 138.352 119.885 138.905 114.755C139.243 114.956 140.035 115.217 141.665 115.377C142.223 115.43 142.88 115.474 143.65 115.499Z" fill="#E9F3FE"/>
<path d="M140.806 125.87C140.795 125.976 140.784 126.072 140.771 126.159C140.765 126.205 140.75 126.25 140.727 126.29C140.703 126.331 140.671 126.366 140.634 126.394C140.596 126.422 140.553 126.442 140.507 126.453C140.462 126.464 140.414 126.466 140.368 126.458L137.829 126.022C137.739 126.007 137.658 125.956 137.605 125.882C137.551 125.808 137.529 125.716 137.543 125.626C137.569 125.465 137.603 125.304 137.646 125.146C137.741 124.788 137.878 124.443 138.056 124.118C138.08 124.072 138.116 124.032 138.159 124.001C138.202 123.971 138.251 123.951 138.303 123.943C139.636 123.745 140.397 124.166 140.664 124.362C140.7 124.388 140.73 124.42 140.754 124.457C140.777 124.494 140.793 124.536 140.8 124.579C140.854 125.007 140.856 125.441 140.806 125.87Z" fill="#35488B"/>
<path d="M140.71 124.478C140.71 124.472 140.486 123.916 139.65 123.679C139.409 123.609 139.154 123.6 138.908 123.652C138.663 123.704 138.433 123.816 138.242 123.977L138.079 124.078C138.106 124.053 138.778 123.284 139.688 123.544C139.946 123.609 140.184 123.738 140.378 123.919C140.572 124.1 140.717 124.327 140.798 124.579L140.71 124.478Z" fill="#35488B"/>
<path d="M140.805 125.87C140.794 125.976 140.783 126.073 140.771 126.159C140.765 126.206 140.75 126.25 140.726 126.291C140.702 126.331 140.671 126.367 140.633 126.395C140.595 126.422 140.552 126.443 140.507 126.454C140.461 126.465 140.413 126.466 140.367 126.458L137.828 126.023C137.738 126.007 137.658 125.957 137.604 125.883C137.551 125.809 137.529 125.717 137.543 125.627C137.568 125.465 137.603 125.305 137.646 125.147C137.646 125.147 137.717 125.752 139.264 125.999C140.199 126.143 140.615 126.003 140.805 125.87Z" fill="#35488B"/>
<path d="M79.8927 126.462C79.8927 126.462 79.8718 123.906 80.9978 123.708C82.1239 123.51 83.7583 122.893 83.9829 126.462H79.8927Z" fill="#22356B"/>
<path d="M88.217 126.462C88.217 126.462 88.197 123.906 89.3221 123.708C90.4472 123.51 92.0825 122.893 92.3081 126.462H88.217Z" fill="#22356B"/>
<path d="M78.0194 99.2099C77.3599 100.744 76.9259 102.364 76.7306 104.02H92.6211C92.6211 104.02 91.1657 99.3434 89.8607 98.8264C88.5557 98.3093 78.0194 99.2099 78.0194 99.2099Z" fill="#1B2E59"/>
<path d="M81.2365 76.2382C81.2365 76.2382 79.7573 74.2155 78.7807 72.5914C77.6146 70.654 78.2667 67.5366 82.5111 66.8756C82.5111 66.8756 83.8751 66.5849 84.2635 66.2231C84.2635 66.2231 84.2435 66.7288 84.1216 66.8633C84.1216 66.8633 87.5027 66.4211 87.7454 67.9315C88.4879 72.5526 87.6207 74.2392 87.6207 74.2392L81.2365 76.2382Z" fill="#B5493F"/>
<path d="M97.4144 126.459C97.3948 126.46 97.375 126.46 97.3554 126.459C97.2804 126.462 97.2063 126.441 97.1452 126.397C97.0841 126.354 97.0395 126.291 97.0184 126.219L93.2033 109.81L92.9263 108.615L94.2304 108.559L94.6568 110.795L97.5981 126.231C97.602 126.258 97.6002 126.285 97.5929 126.312C97.5857 126.338 97.573 126.363 97.5558 126.384C97.5386 126.406 97.5172 126.423 97.4929 126.436C97.4685 126.449 97.4418 126.457 97.4144 126.459Z" fill="#E5BD9E"/>
<path d="M78.0242 108.618L77.3959 111.319L73.9311 126.223C73.9101 126.295 73.8654 126.358 73.8043 126.401C73.7432 126.444 73.6692 126.466 73.5942 126.463C73.5742 126.464 73.5542 126.464 73.5342 126.463C73.5072 126.46 73.481 126.453 73.4571 126.44C73.4332 126.427 73.4122 126.41 73.3952 126.389C73.3782 126.368 73.3657 126.343 73.3583 126.317C73.351 126.291 73.3489 126.264 73.3524 126.237L76.4869 109.781L76.7201 108.565L78.0242 108.618Z" fill="#E5BD9E"/>
<path d="M78.0242 108.618L77.3959 111.319C77.3771 111.009 77.285 110.707 77.127 110.44C76.969 110.172 76.7497 109.945 76.4869 109.777L76.7201 108.561L78.0242 108.618Z" fill="#CC9E7F"/>
<path d="M94.6543 110.802C94.0089 109.855 93.2265 109.855 93.2017 109.818L92.9247 108.623L94.2288 108.566L94.6543 110.802Z" fill="#CC9E7F"/>
<path d="M94.3255 108.737H75.4337C74.4995 108.737 73.7422 107.984 73.7422 107.054V105.704C73.7422 104.775 74.4995 104.021 75.4337 104.021H94.3255C95.2596 104.021 96.0169 104.775 96.0169 105.704V107.054C96.0169 107.984 95.2596 108.737 94.3255 108.737Z" fill="#A03530"/>
<path d="M91.491 98.4717C90.9313 95.3713 89.3017 91.8429 89.3017 91.8429C90.4877 86.8998 89.277 81.3412 89.277 81.3412C88.6244 81.1665 87.9598 81.0399 87.2885 80.9624C87.2057 80.5211 86.9658 79.1944 86.864 78.0514C86.8535 77.9189 86.844 77.7891 86.8354 77.6632C86.816 77.3756 86.816 77.0871 86.8354 76.7996L86.0006 76.8545L82.5615 77.0827L82.4159 77.0922C82.4159 77.0922 82.4368 77.399 82.4425 77.8611C82.452 78.6925 82.4121 80.0221 82.1122 80.9766C80.633 81.1291 79.6307 81.344 79.6307 81.344C78.6626 81.5078 78.8692 87.5049 80.6777 92.1668C81.5106 94.3126 79.1547 97.6336 79.1547 98.4736C79.1547 99.3135 91.6928 99.5919 91.491 98.4717Z" fill="#FFB27D"/>
<path d="M86.8613 78.0496C86.5386 78.4284 85.7191 79.2409 84.6872 79.2589C83.3365 79.2826 82.4351 77.8593 82.4351 77.8593C82.4565 77.5974 82.4962 77.3373 82.5541 77.0809L85.9932 76.8527C86.2867 77.1072 86.5672 77.3761 86.8337 77.6585C86.8413 77.7873 86.8509 77.917 86.8613 78.0496Z" fill="#EF9E67"/>
<path d="M85.1099 78.3132C84.6694 78.3973 84.2165 78.3942 83.7772 78.3042C83.3379 78.2142 82.9207 78.039 82.5494 77.7885C82.1782 77.5381 81.8602 77.2173 81.6136 76.8446C81.3669 76.4719 81.1965 76.0545 81.112 75.6163L80.5666 72.8199C80.4497 72.2232 80.574 71.6046 80.9126 71.0985C81.2512 70.5924 81.7767 70.2394 82.3752 70.1163L84.4008 69.7167C84.9997 69.6032 85.6193 69.7308 86.1237 70.0716C86.6281 70.4123 86.9759 70.9383 87.0907 71.5339L87.6619 74.4856C87.8276 75.3292 87.6527 76.2039 87.1751 76.9202C86.6975 77.6365 85.9556 78.137 85.1099 78.3132Z" fill="#FFB27D"/>
<path d="M83.5962 76.4461C83.5962 76.4461 83.7523 76.876 84.8337 76.6771C84.8337 76.6771 85.7465 76.5105 85.6608 76.0275C85.6694 76.0275 84.7385 75.7879 83.5962 76.4461Z" fill="white"/>
<path d="M96.2065 96.1716L93.2091 94.6669L92.3067 94.2133C92.0393 93.6035 91.1378 91.6953 90.5791 90.6025C90.7038 91.1489 90.8275 91.7086 90.9465 92.2664C90.9903 92.4737 91.0331 92.6802 91.0769 92.8866C91.6918 95.8383 92.1582 98.6157 92.0859 99.2104C91.9203 100.565 86.6545 99.9547 85.2971 99.629C83.9398 99.3032 80.8538 100.048 78.3847 100C76.9654 99.9746 77.4004 96.0012 78.0258 92.6347C78.1743 91.8279 78.3371 91.0542 78.4856 90.38C77.6879 91.9756 76.8674 93.6593 76.6703 94.1906L74.9703 95.0892L73.0904 96.0826L73.0418 96.1091C73.0376 96.1012 73.035 96.0925 73.0342 96.0835C72.92 95.4699 74.9912 84.1149 77.6032 82.1576C77.6031 82.1072 77.6163 82.0576 77.6413 82.0138C77.6664 81.97 77.7024 81.9333 77.746 81.9076C78.7721 81.2023 80.0266 80.905 81.2622 81.0742C81.2622 81.0742 82.1188 82.6083 84.5937 82.7248C85.3064 82.7645 86.0187 82.6417 86.6764 82.3658C87.3342 82.0899 87.9198 81.6683 88.3888 81.133C88.3888 81.133 89.6006 81.1633 90.5429 81.5856C90.8249 81.7034 91.08 81.8767 91.293 82.0951C92.1173 82.9909 96.1228 90.6821 96.2065 96.1716Z" fill="#A53A35"/>
<path d="M92.435 94.0753C92.435 94.0753 88.1839 98.6397 86.1136 100.177L86.7732 101.54C86.7732 101.54 93.3412 99.0431 96.1121 95.5384L92.435 94.0753Z" fill="#0052B4"/>
<path d="M86.6493 99.8563C86.6493 99.8563 84.8998 100.348 84.6152 100.898C84.3306 101.448 84.4505 103.005 84.8922 102.745C85.3339 102.486 87.7668 100.879 87.7668 100.879L86.6493 99.8563Z" fill="#0052B4"/>
<path d="M82.3055 80.0751C82.3055 80.0751 83.4658 82.3658 84.5957 82.7266C84.5957 82.7266 82.9889 83.3373 80.6454 81.0306C80.8137 80.7406 81.0557 80.4996 81.347 80.3319C81.6384 80.1643 81.9689 80.0757 82.3055 80.0751Z" fill="#E6F1FF"/>
<path d="M87.1773 80.0751C87.1773 80.0751 85.7257 82.3658 84.5949 82.7266C84.5949 82.7266 86.4987 83.3373 88.8374 81.0306C88.669 80.7407 88.427 80.4999 88.1357 80.3322C87.8443 80.1645 87.5139 80.0759 87.1773 80.0751Z" fill="#E6F1FF"/>
<path d="M76.6829 94.0753C76.6829 94.0753 81.1072 98.4702 83.2356 99.9247L82.6283 101.314C82.6283 101.314 76.3526 99.17 73.4475 95.7761L76.6829 94.0753Z" fill="#FFB27D"/>
<path d="M81.6553 99.5332C81.6553 99.5332 83.4639 99.6582 83.856 100.134C84.2482 100.609 84.4434 102.164 83.9598 102C83.4763 101.836 80.7672 100.76 80.7672 100.76L81.6553 99.5332Z" fill="#FFB27D"/>
<path d="M84.2446 87.4265C84.2452 87.3573 84.2663 87.2898 84.3054 87.2325C84.3445 87.1753 84.3997 87.1308 84.4642 87.1048C84.5287 87.0787 84.5994 87.0722 84.6676 87.0861C84.7357 87.1 84.7982 87.1337 84.8472 87.1829C84.8961 87.2322 84.9293 87.2947 84.9425 87.3626C84.9558 87.4306 84.9485 87.5009 84.9216 87.5647C84.8947 87.6286 84.8494 87.6831 84.7915 87.7213C84.7335 87.7596 84.6654 87.7799 84.5958 87.7797C84.5023 87.779 84.4128 87.7414 84.347 87.6752C84.2811 87.609 84.2443 87.5196 84.2446 87.4265Z" fill="#C65447"/>
<path d="M84.2446 93.0873C84.2452 93.0181 84.2663 92.9506 84.3054 92.8933C84.3445 92.836 84.3997 92.7916 84.4642 92.7655C84.5287 92.7395 84.5994 92.733 84.6676 92.7469C84.7357 92.7608 84.7982 92.7945 84.8472 92.8437C84.8961 92.8929 84.9293 92.9554 84.9425 93.0234C84.9558 93.0913 84.9485 93.1617 84.9216 93.2255C84.8947 93.2893 84.8494 93.3438 84.7915 93.3821C84.7335 93.4204 84.6654 93.4407 84.5958 93.4405C84.5023 93.4397 84.4128 93.4022 84.347 93.336C84.2811 93.2698 84.2443 93.1804 84.2446 93.0873Z" fill="#C65447"/>
<path d="M80.5678 72.8198C80.5678 72.8198 80.6706 71.6835 81.394 71.5017C82.1174 71.3199 84.8122 72.2848 85.3919 71.5017C85.9716 70.7185 86.4113 70.3881 86.8025 70.782C87.1938 71.1759 86.9177 68.4146 86.8225 68.3786C86.7273 68.3426 80.7306 68.6712 80.7306 68.6712L79.3027 70.1863L79.376 71.9079L80.5678 72.8198Z" fill="#B5493F"/>
<path d="M84.7739 124.085C84.7739 124.085 83.7602 124.508 82.2191 124.519C81.1264 124.527 80.0423 124.327 79.0246 123.931C79.0246 123.931 78.1356 117.677 77.6044 112.326C77.3036 109.284 77.1171 106.534 77.276 105.394C77.7139 102.249 79.1379 100.432 80.935 100.583C82.7322 100.735 84.4122 101.986 84.5369 103.504C84.6616 105.022 84.7739 124.085 84.7739 124.085Z" fill="#2B478B"/>
<path d="M79.1484 88.0041L78.4821 90.3801C77.7558 92.5155 76.8639 93.6594 76.6669 94.1906L74.9668 95.0893L73.0869 96.0827H73.0307C72.7737 94.8279 74.8888 84.0563 77.4979 82.0942C77.575 82.0267 77.6557 81.9635 77.7396 81.9048C78.5849 83.5023 80.1326 86.8205 79.1484 88.0041Z" fill="#E6F1FF"/>
<path d="M78.0176 95.063L77.178 95.7988L75.0116 97.6927C73.8132 97.598 72.9479 96.17 72.9479 96.17C73.3715 95.4891 74.0178 94.9939 74.6613 94.6406C75.3357 94.2763 76.0602 94.0122 76.8116 93.8566L78.0176 95.063Z" fill="#E6F1FF"/>
<path d="M78.0176 95.0627L77.178 95.7985C75.7226 95.7871 74.6603 94.6422 74.6603 94.6422C75.3348 94.2779 76.0592 94.0138 76.8106 93.8582L78.0176 95.0627Z" fill="#C7DCF2"/>
<path d="M90.5448 81.585C90.8304 81.7137 91.174 81.8615 91.371 82.0755C91.6366 82.3653 92.1954 83.388 92.8855 84.7933C94.3323 87.7364 96.1504 92.4636 96.2065 96.1719L94.4551 95.2922L93.2091 94.6672L92.3067 94.2136C91.7756 93.3443 91.0455 91.742 90.5791 90.6028C90.7038 91.1492 90.8275 91.7089 90.9465 92.2667L89.6463 87.4268C89.0675 86.5707 90.2878 82.4249 90.5448 81.585Z" fill="#E6F1FF"/>
<path d="M96.2065 96.1718C96.2065 96.1718 95.3403 97.6008 94.1429 97.6946L91.6804 95.5383L91.1378 95.0649L92.1639 93.8944C92.7321 93.9975 93.288 94.1584 93.8231 94.3745C94.6759 94.7183 95.6535 95.2827 96.2065 96.1718Z" fill="#E6F1FF"/>
<path d="M93.823 94.3745C93.823 94.3745 92.6665 95.3925 91.6803 95.5383L91.1378 95.0649L92.1639 93.8944C92.732 93.9975 93.288 94.1584 93.823 94.3745Z" fill="#C7DCF2"/>
<path d="M92.1934 118.808C92.3781 121.413 92.4866 123.318 92.4866 123.318C89.6157 125.15 86.88 124.609 86.88 124.609C86.88 124.609 84.0711 110.151 83.2725 105.626C83.162 105.003 83.0906 104.568 83.0697 104.385C82.8936 102.87 84.2957 101.313 86.0272 100.808C87.7586 100.303 89.512 101.801 90.559 104.798C91.2396 106.746 91.8488 113.978 92.1934 118.808Z" fill="#2B478B"/>
<path d="M92.1934 118.807C92.3781 121.412 92.4866 123.318 92.4866 123.318C89.6157 125.15 86.88 124.608 86.88 124.608C86.88 124.608 84.0711 110.15 83.2725 105.626C83.2858 105.167 83.2943 104.896 83.2953 104.861C83.3315 105.147 85.0306 118.339 92.1934 118.807Z" fill="#233F77"/>
<path d="M82.219 124.519C81.1263 124.527 80.0422 124.327 79.0245 123.931C79.0245 123.931 78.1355 117.677 77.6043 112.326C77.6348 112.474 79.4776 121.466 82.219 124.519Z" fill="#233F77"/>
<path d="M92.8839 84.7932C94.3307 87.7364 96.3582 92.3026 96.2049 96.1719L94.4535 95.2921C94.4935 95.2564 94.5354 95.2229 94.5791 95.1918C96.3658 93.9067 92.9705 85.0139 92.8839 84.7932Z" fill="#C7DCF2"/>
<path d="M49.5328 75.6696C48.9124 74.8018 48.4933 73.8079 48.3058 72.7596C48.006 71.0352 48.2372 66.8127 51.4384 67.003C53.7153 67.1384 54.9603 66.5873 55.9655 67.1754C56.8879 67.7142 58.2091 69.2757 57.9511 70.9054C57.6932 72.5351 56.1426 75.6696 56.1426 75.6696H49.5328Z" fill="#1B2E59"/>
<path d="M48.164 126.462C48.164 126.462 48.144 123.906 49.2691 123.708C50.3942 123.51 52.0295 122.893 52.2542 126.462H48.164Z" fill="#22356B"/>
<path d="M53.9701 126.462C53.9701 126.462 53.9501 123.906 55.0762 123.708C56.2023 123.51 57.8319 122.893 58.0613 126.462H53.9701Z" fill="#22356B"/>
<path d="M46.2906 99.2099C45.6317 100.744 45.1977 102.364 45.0018 104.02H60.8923C60.8923 104.02 59.4369 99.3434 58.1319 98.8264C56.8269 98.3093 46.2906 99.2099 46.2906 99.2099Z" fill="#993530"/>
<path d="M65.6866 126.459C65.6666 126.46 65.6466 126.46 65.6266 126.459C65.5516 126.462 65.4776 126.441 65.4165 126.397C65.3553 126.354 65.3107 126.291 65.2896 126.219L61.4746 109.81L61.1975 108.615L62.5016 108.559L62.9281 110.795L65.8693 126.231C65.8732 126.258 65.8715 126.285 65.8642 126.312C65.857 126.338 65.8445 126.363 65.8274 126.384C65.8103 126.405 65.7889 126.423 65.7647 126.436C65.7405 126.449 65.7139 126.457 65.6866 126.459Z" fill="#E5BD9E"/>
<path d="M46.2986 108.618L45.6713 111.319L42.2055 126.223C42.1845 126.295 42.1398 126.357 42.0787 126.401C42.0176 126.444 41.9436 126.466 41.8686 126.462C41.8486 126.464 41.8286 126.464 41.8086 126.462C41.7816 126.46 41.7554 126.452 41.7315 126.439C41.7076 126.427 41.6866 126.409 41.6696 126.388C41.6526 126.367 41.6401 126.343 41.6327 126.317C41.6254 126.291 41.6234 126.264 41.6268 126.237L44.7613 109.777L44.9936 108.561L46.2986 108.618Z" fill="#E5BD9E"/>
<path d="M46.2986 108.618L45.6713 111.319C45.6525 111.009 45.5603 110.707 45.4024 110.44C45.2444 110.172 45.0251 109.945 44.7623 109.777L44.9945 108.561L46.2986 108.618Z" fill="#CC9E7F"/>
<path d="M62.929 110.802C62.2845 109.855 61.5011 109.855 61.4764 109.818L61.1994 108.623L62.5034 108.566L62.929 110.802Z" fill="#CC9E7F"/>
<path d="M43.7037 108.737L62.5965 108.737C63.0451 108.737 63.4753 108.56 63.7925 108.244C64.1097 107.929 64.2879 107.501 64.2879 107.054V105.704C64.2879 105.258 64.1097 104.83 63.7925 104.514C63.4753 104.199 63.0451 104.021 62.5965 104.021H43.7037C43.2554 104.021 42.8253 104.198 42.5083 104.514C42.1913 104.829 42.0132 105.257 42.0132 105.703V107.054C42.0131 107.275 42.0567 107.494 42.1416 107.698C42.2265 107.902 42.351 108.088 42.508 108.244C42.665 108.4 42.8514 108.524 43.0565 108.609C43.2617 108.694 43.4816 108.737 43.7037 108.737Z" fill="#FF9924"/>
<path d="M59.7622 98.4717C59.2025 95.3713 57.5729 91.8429 57.5729 91.8429C58.758 86.8998 57.5472 81.3412 57.5472 81.3412C56.8949 81.1666 56.2306 81.04 55.5597 80.9624C55.4759 80.5211 55.2361 79.1944 55.1352 78.0514C55.1237 77.9189 55.1142 77.7891 55.1056 77.6632C55.0857 77.3757 55.0857 77.0871 55.1056 76.7996L54.2699 76.8545L50.8308 77.0827L50.6852 77.0922C50.6852 77.0922 50.7061 77.399 50.7118 77.8611C50.7223 78.6925 50.6814 80.0221 50.3825 80.9766C48.9023 81.1291 47.9 81.344 47.9 81.344C46.9319 81.5078 47.1385 87.5049 48.947 92.1668C49.7809 94.3126 47.424 97.6336 47.424 98.4736C47.424 99.3135 59.965 99.5919 59.7622 98.4717Z" fill="#FFB27D"/>
<path d="M55.136 78.0496C54.8123 78.4284 53.9985 79.2409 52.961 79.2589C51.6102 79.2826 50.7088 77.8593 50.7088 77.8593C50.7302 77.5974 50.7699 77.3373 50.8278 77.0809L54.2669 76.8527C54.5604 77.1079 54.8406 77.3778 55.1065 77.6614C55.1131 77.7873 55.1227 77.917 55.136 78.0496Z" fill="#EF9E67"/>
<path d="M52.9343 78.4542C52.0279 78.448 51.161 78.0847 50.5232 77.444C49.8854 76.8034 49.5288 75.9374 49.5313 75.0357V72.1863C49.5301 71.579 49.7704 70.996 50.1999 70.5645C50.6294 70.1329 51.213 69.8881 51.8234 69.8833H53.8871C54.4975 69.8881 55.0812 70.1329 55.5107 70.5645C55.9401 70.996 56.1805 71.579 56.1792 72.1863V75.1967C56.1802 76.0559 55.8396 76.8806 55.2317 77.4909C54.6238 78.1012 53.7979 78.4475 52.9343 78.4542Z" fill="#FFB27D"/>
<path d="M51.8123 76.3322C51.8123 76.3322 51.8828 76.7839 52.9869 76.8C52.9869 76.8 53.915 76.8123 53.9236 76.3265C53.9236 76.3209 53.0545 75.9052 51.8123 76.3322Z" fill="white"/>
<path d="M64.4778 96.172L61.4803 94.6673L60.5789 94.2137C60.3105 93.6038 59.4091 91.6957 58.8503 90.6029C58.976 91.1493 59.0988 91.709 59.2177 92.2667C59.2625 92.4741 59.3053 92.6806 59.3482 92.887C59.9631 95.8387 60.4295 98.6161 60.3572 99.2108C60.1915 100.565 54.9258 99.9551 53.5684 99.6293C52.211 99.3036 49.125 100.049 46.6559 100.001C45.2367 99.975 45.6717 96.0015 46.297 92.6351C46.4455 91.8283 46.6083 91.0546 46.7568 90.3804C45.9591 91.976 45.1386 93.6597 44.9416 94.1909L43.2415 95.0896L41.3616 96.083L41.313 96.1095C41.3088 96.1016 41.3062 96.0929 41.3054 96.0839C41.1912 95.4703 43.1635 84.0575 45.7726 82.0954C45.8499 82.0279 45.9309 81.9647 46.0153 81.9061C47.0414 81.2006 48.2959 80.9033 49.5315 81.0727C49.5315 81.0727 50.3882 82.6068 52.863 82.7233C53.5757 82.7629 54.2881 82.6402 54.9458 82.3643C55.6035 82.0884 56.1892 81.6668 56.6582 81.1315C56.6582 81.1315 57.8699 81.1617 58.8122 81.5841C59.0943 81.7017 59.3495 81.875 59.5623 82.0936C60.3886 82.9913 64.394 90.6825 64.4778 96.172Z" fill="#0052B4"/>
<path d="M60.7108 94.0753C60.7108 94.0753 56.4598 98.6397 54.3885 100.177L55.0491 101.54C55.0491 101.54 61.617 99.0431 64.387 95.5384L60.7108 94.0753Z" fill="#0052B4"/>
<path d="M54.924 99.8563C54.924 99.8563 53.1754 100.348 52.8908 100.898C52.6062 101.448 52.7261 103.005 53.1669 102.745C53.6076 102.486 56.0415 100.879 56.0415 100.879L54.924 99.8563Z" fill="#0052B4"/>
<path d="M50.5758 80.0751C50.5758 80.0751 51.7361 82.3658 52.8669 82.7266C52.8669 82.7266 51.2592 83.3373 48.9157 81.0306C49.084 80.7406 49.326 80.4996 49.6173 80.3319C49.9087 80.1643 50.2392 80.0757 50.5758 80.0751Z" fill="#233F77"/>
<path d="M55.4486 80.0751C55.4486 80.0751 53.997 82.3658 52.8671 82.7266C52.8671 82.7266 54.7651 83.3373 57.1086 81.0306C56.9403 80.7406 56.6984 80.4996 56.4071 80.3319C56.1157 80.1643 55.7852 80.0757 55.4486 80.0751Z" fill="#233F77"/>
<path d="M44.9507 94.0753C44.9507 94.0753 49.375 98.4702 51.5034 99.9247L50.8971 101.314C50.8971 101.314 44.6204 99.17 41.7153 95.7761L44.9507 94.0753Z" fill="#FFB27D"/>
<path d="M49.9259 99.5332C49.9259 99.5332 51.7345 99.6582 52.1266 100.134C52.5188 100.609 52.7149 102.164 52.2304 102C51.7459 101.836 49.0378 100.76 49.0378 100.76L49.9259 99.5332Z" fill="#FFB27D"/>
<path d="M52.5175 87.4265C52.5183 87.3575 52.5395 87.2903 52.5786 87.2334C52.6176 87.1764 52.6727 87.1322 52.737 87.1063C52.8012 87.0805 52.8717 87.0741 52.9396 87.088C53.0075 87.1019 53.0697 87.1355 53.1184 87.1845C53.1672 87.2335 53.2002 87.2958 53.2135 87.3635C53.2267 87.4311 53.2196 87.5012 53.1929 87.5648C53.1662 87.6285 53.1212 87.6828 53.0635 87.721C53.0058 87.7593 52.938 87.7797 52.8687 87.7797C52.8224 87.7794 52.7765 87.7701 52.7337 87.7522C52.691 87.7343 52.6522 87.7082 52.6196 87.6754C52.587 87.6426 52.5612 87.6038 52.5437 87.561C52.5261 87.5183 52.5173 87.4726 52.5175 87.4265Z" fill="#C65447"/>
<path d="M52.5175 93.087C52.5183 93.018 52.5395 92.9509 52.5786 92.8939C52.6176 92.8369 52.6727 92.7927 52.737 92.7669C52.8012 92.741 52.8717 92.7346 52.9396 92.7485C53.0075 92.7624 53.0697 92.796 53.1184 92.845C53.1672 92.894 53.2002 92.9563 53.2135 93.024C53.2267 93.0916 53.2196 93.1617 53.1929 93.2253C53.1662 93.289 53.1212 93.3433 53.0635 93.3816C53.0058 93.4198 52.938 93.4402 52.8687 93.4402C52.8224 93.4399 52.7765 93.4306 52.7337 93.4127C52.691 93.3948 52.6522 93.3687 52.6196 93.3359C52.587 93.3031 52.5612 93.2643 52.5437 93.2216C52.5261 93.1788 52.5173 93.1331 52.5175 93.087Z" fill="#C65447"/>
<path d="M49.5307 72.1859C49.5307 72.1859 49.8505 71.0883 50.5939 71.0495C51.3373 71.0107 53.7979 72.4794 54.5128 71.8184C55.2276 71.1575 55.7264 70.9217 56.0358 71.3847C56.3451 71.8478 56.6012 69.0874 56.5117 69.0296C56.4222 68.9719 50.4759 68.1385 50.4759 68.1385L48.7882 69.3459L48.5312 71.0504L49.5307 72.1859Z" fill="#1B2E59"/>
<path d="M53.0417 124.085C53.0417 124.085 52.028 124.508 50.4869 124.519C49.3942 124.527 48.3101 124.327 47.2925 123.931C47.2925 123.931 46.4043 117.677 45.8732 112.326C45.5715 109.284 45.3858 106.534 45.5439 105.394C45.9817 102.249 47.4057 100.432 49.2028 100.583C51 100.735 52.68 101.986 52.8057 103.504C52.9313 105.022 53.0417 124.085 53.0417 124.085Z" fill="#0052B4"/>
<path d="M59.1849 119.443C58.8631 122.035 58.6004 123.925 58.6004 123.925C55.4297 125.162 52.8511 124.097 52.8511 124.097C52.8511 124.097 52.8901 109.367 52.9815 104.771C52.9939 104.14 53.0072 103.698 53.0224 103.515C53.1424 102 54.8186 100.74 56.6148 100.579C58.411 100.418 59.8417 102.234 60.289 105.378C60.5803 107.426 59.7798 114.64 59.1849 119.443Z" fill="#0052B4"/>
<path d="M47.4199 88.0041L46.7535 90.3801C45.9559 91.9757 45.1354 93.6594 44.9383 94.1906L43.2383 95.0893L41.3583 96.0827H41.3022C41.188 95.469 43.1602 84.0563 45.7693 82.0942C45.8467 82.0266 45.9277 81.9634 46.012 81.9048C46.8544 83.5023 48.4041 86.8205 47.4199 88.0041Z" fill="#35488B"/>
<path d="M46.292 95.063L45.4524 95.7988L43.286 97.6927C42.0876 97.598 41.2233 96.17 41.2233 96.17C41.6459 95.4891 42.2922 94.9939 42.9366 94.6406C43.6108 94.2763 44.3349 94.0121 45.086 93.8566L46.292 95.063Z" fill="#35488B"/>
<path d="M46.292 95.0627L45.4524 95.7985C43.998 95.7871 42.9357 94.6422 42.9357 94.6422C43.6098 94.2779 44.3339 94.0137 45.085 93.8582L46.292 95.0627Z" fill="#233F77"/>
<path d="M64.4778 96.1719L62.7263 95.2922L61.4803 94.6672L60.5789 94.2136C60.3105 93.6038 59.4091 91.6956 58.8503 90.6028C58.976 91.1492 59.0988 91.7089 59.2177 92.2667L57.9175 87.4268C57.3397 86.5745 58.56 82.4249 58.8161 81.585C59.0981 81.7026 59.3533 81.8759 59.5661 82.0944C59.8317 82.3842 60.4304 83.3832 61.1205 84.7895C62.5693 87.7364 64.4216 92.4589 64.4778 96.1719Z" fill="#35488B"/>
<path d="M64.4778 96.1715C64.4778 96.1715 63.6116 97.6005 62.4151 97.6942L59.9517 95.538L59.4091 95.0646L60.4352 93.896C61.0033 93.9991 61.5593 94.1599 62.0943 94.3761C62.9481 94.718 63.9247 95.2823 64.4778 96.1715Z" fill="#35488B"/>
<path d="M62.0942 94.3742C62.0942 94.3742 60.9377 95.3922 59.9516 95.538L59.409 95.0646L60.4351 93.896C61.0032 93.9984 61.5591 94.1587 62.0942 94.3742Z" fill="#233F77"/>
<path d="M59.1824 119.443C58.8606 122.035 58.5979 123.925 58.5979 123.925C55.4272 125.162 52.8486 124.096 52.8486 124.096C52.8486 124.096 52.8877 109.366 52.979 104.771C53.0809 104.325 53.1408 104.06 53.1494 104.026C53.1294 104.314 52.2461 117.585 59.1824 119.443Z" fill="#4395F2"/>
<path d="M50.49 124.519C49.3973 124.527 48.3132 124.327 47.2955 123.931C47.2955 123.931 46.4074 117.677 45.8763 112.326C45.901 112.474 47.7486 121.466 50.49 124.519Z" fill="#4395F2"/>
<path d="M61.1224 84.7932C62.5693 87.7364 64.4216 92.4636 64.4778 96.1719L62.7263 95.2921C62.7663 95.2564 62.8083 95.2229 62.852 95.1918C64.6387 93.9067 61.2081 85.0139 61.1224 84.7932Z" fill="#233F77"/>
<path d="M194.125 126.459C194.105 126.46 194.085 126.46 194.065 126.459C193.99 126.462 193.916 126.441 193.855 126.397C193.794 126.354 193.749 126.291 193.728 126.219L189.914 109.81L189.637 108.615L190.942 108.559L191.366 110.802L194.307 126.237C194.31 126.264 194.307 126.291 194.3 126.316C194.292 126.342 194.28 126.365 194.263 126.386C194.246 126.407 194.225 126.424 194.201 126.436C194.178 126.449 194.152 126.456 194.125 126.459Z" fill="#E5BD9E"/>
<path d="M174.736 108.618L174.107 111.319L170.643 126.223C170.621 126.295 170.576 126.357 170.515 126.401C170.454 126.444 170.381 126.466 170.306 126.463C170.286 126.464 170.266 126.464 170.246 126.463C170.219 126.46 170.192 126.453 170.168 126.44C170.144 126.427 170.123 126.409 170.106 126.388C170.089 126.367 170.076 126.343 170.069 126.317C170.061 126.291 170.059 126.263 170.063 126.237L173.198 109.781L173.431 108.565L174.736 108.618Z" fill="#E5BD9E"/>
<path d="M174.736 108.618L174.107 111.319C174.089 111.009 173.996 110.707 173.838 110.44C173.68 110.172 173.461 109.945 173.198 109.777L173.431 108.561L174.736 108.618Z" fill="#CC9E7F"/>
<path d="M191.366 110.802C190.721 109.855 189.938 109.855 189.914 109.818L189.637 108.623L190.942 108.566L191.366 110.802Z" fill="#CC9E7F"/>
<path d="M172.144 108.735L191.037 108.735C191.485 108.735 191.915 108.558 192.233 108.242C192.55 107.927 192.728 107.499 192.728 107.053V105.702C192.728 105.256 192.55 104.828 192.233 104.512C191.915 104.197 191.485 104.02 191.037 104.02H172.144C171.696 104.02 171.266 104.197 170.949 104.512C170.631 104.827 170.453 105.255 170.453 105.701V107.053C170.453 107.274 170.497 107.492 170.582 107.696C170.667 107.901 170.791 108.086 170.948 108.242C171.105 108.399 171.292 108.523 171.497 108.607C171.702 108.692 171.922 108.735 172.144 108.735Z" fill="#C65447"/>
<path d="M181.362 66.7613C181.362 66.7613 177.882 66.0151 175.746 67.6003C173.61 69.1855 175.05 72.9629 174.214 73.9449C173.379 74.9269 172.406 75.2972 173.38 77.2593C174.353 79.2214 172.406 79.7479 172.406 81.1626C172.406 82.5774 174.43 82.9931 174.485 84.2516C174.54 85.5101 180.852 86.6768 183.543 86.7232C186.234 86.7696 189.342 83.5158 189.714 82.8814C190.086 82.2469 191.059 79.4022 189.714 77.9572C188.369 76.5121 189.437 74.5529 188.927 73.4336C188.416 72.3142 186.467 71.6618 186.791 70.729C187.116 69.7963 186.42 65.7348 181.362 66.7613Z" fill="#1B2E59"/>
<path d="M188.202 98.4717C187.644 95.3704 186.013 91.8429 186.013 91.8429C187.198 86.8998 185.988 81.3412 185.988 81.3412C185.336 81.1666 184.671 81.04 184 80.9624C183.917 80.5211 183.677 79.1944 183.575 78.0514C183.564 77.9189 183.554 77.7891 183.546 77.6632C183.526 77.3756 183.526 77.0871 183.546 76.7996L182.71 76.8545L179.261 77.0808L179.114 77.0903C179.114 77.0903 179.135 77.3961 179.141 77.8592C179.151 78.6906 179.11 80.0202 178.811 80.9747C177.331 81.1272 176.329 81.3421 176.329 81.3421C175.361 81.5059 175.567 87.503 177.376 92.1649C178.21 94.3107 175.853 97.6317 175.853 98.4717C175.853 99.3116 188.405 99.5919 188.202 98.4717Z" fill="#FFB27D"/>
<path d="M183.572 78.0496C183.25 78.4284 182.435 79.2409 181.397 79.2589C180.047 79.2826 179.145 77.8593 179.145 77.8593C179.167 77.5973 179.207 77.3372 179.265 77.0809L182.703 76.8527C182.997 77.1067 183.278 77.3757 183.544 77.6585C183.551 77.7873 183.561 77.917 183.572 78.0496Z" fill="#EF9E67"/>
<path d="M181.371 78.4542C179.5 78.4542 177.969 76.9154 177.969 75.0357V72.1863C177.968 71.579 178.208 70.9958 178.637 70.5641C179.066 70.1324 179.65 69.8873 180.26 69.8823H182.324C182.935 69.8871 183.518 70.1321 183.948 70.5638C184.377 70.9955 184.618 71.5789 184.616 72.1863V75.1967C184.617 76.0558 184.277 76.8806 183.669 77.4909C183.061 78.1011 182.235 78.4474 181.371 78.4542Z" fill="#FFB27D"/>
<path d="M180.249 76.3322C180.249 76.3322 180.32 76.7839 181.425 76.8C181.425 76.8 182.352 76.8123 182.36 76.3265C182.36 76.3209 181.491 75.9052 180.249 76.3322Z" fill="white"/>
<path d="M181.492 68.9461C181.492 68.9461 181.196 72.4783 178.065 73.2311C174.935 73.984 177.665 67.2653 179.779 67.7823C181.893 68.2994 181.492 68.9461 181.492 68.9461Z" fill="#1B2E59"/>
<path d="M181.118 68.9461C181.118 68.9461 181.414 72.4783 184.545 73.2311C187.675 73.984 184.945 67.2653 182.831 67.7823C180.717 68.2994 181.118 68.9461 181.118 68.9461Z" fill="#1B2E59"/>
<path d="M172.121 104.021C172.121 104.021 174.411 98.6965 176.507 97.6558C178.603 96.615 186.948 97.5393 188.2 98.472C189.453 99.4048 191.056 104.021 191.056 104.021H172.121Z" fill="#22356B"/>
<path d="M174.215 104.021C174.215 104.021 175.031 100.827 176.847 100.687C178.663 100.548 181.088 102.237 181.95 101.782C182.813 101.328 184.456 100.187 185.983 100.478C187.51 100.769 189.807 104.021 189.807 104.021H174.215Z" fill="#1B2E59"/>
<path d="M182.356 124.143L180.189 124.172C180.189 124.172 179.175 120.701 178.052 116.651C177.949 116.272 177.841 115.888 177.735 115.5C176.808 112.123 175.866 108.539 175.405 106.327C175.295 105.797 175.215 105.318 175.168 104.882C174.732 101.08 176.436 100.764 176.844 100.688C177.298 100.606 180.081 99.3215 181.636 104.286C182.161 105.959 182.906 110.567 182.626 114.872C182.357 119.01 182.356 124.143 182.356 124.143Z" fill="#FFB27D"/>
<path d="M187.422 115.111C186.52 119.817 185.509 124.277 185.509 124.277L182.995 124.029C182.995 124.029 182.834 120.03 182.448 115.62C182.418 115.269 182.421 114.914 182.408 114.559C182.286 111.211 182.198 107.75 182.249 105.6C182.379 100.316 184.476 100.418 184.937 100.442C185.397 100.465 188.398 99.8564 188.778 105.043C188.906 106.73 188.207 111.014 187.422 115.111Z" fill="#FFB27D"/>
<path d="M178.051 116.65C177.947 116.272 177.84 115.887 177.734 115.5C176.807 112.123 175.864 108.539 175.404 106.327C175.293 105.796 175.213 105.317 175.167 104.882C175.214 105.039 178.27 115.005 181.327 115.745C183.289 116.22 180.401 116.506 178.051 116.65Z" fill="#EF9E67"/>
<path d="M182.448 115.619C182.435 115.268 182.421 114.914 182.409 114.559C182.286 111.211 182.198 107.75 182.25 105.599C182.25 105.599 182.876 114.72 185.987 115.418C188.043 115.882 184.847 115.757 182.448 115.619Z" fill="#EF9E67"/>
<path d="M187.423 115.111C186.91 117.783 186.364 120.374 185.986 122.118C185.7 123.444 185.51 124.278 185.51 124.278L182.845 124.073C182.845 124.073 182.614 120.029 182.629 114.868C182.987 115.033 183.801 115.209 185.439 115.197C185.997 115.192 186.654 115.167 187.423 115.111Z" fill="#E9F3FE"/>
<path d="M185.986 122.116C185.701 123.442 185.51 124.276 185.51 124.276L182.845 124.071C182.845 124.071 182.403 119.893 182.418 114.732C182.776 114.897 183.801 115.205 185.439 115.195C185.437 115.195 184.298 120.485 185.986 122.116Z" fill="#C7DCF2"/>
<path d="M185.686 125.681C185.686 125.788 185.686 125.886 185.686 125.972C185.685 126.019 185.674 126.065 185.655 126.108C185.635 126.15 185.608 126.189 185.573 126.22C185.539 126.252 185.498 126.277 185.454 126.292C185.409 126.308 185.362 126.315 185.315 126.312L182.745 126.145C182.654 126.14 182.568 126.098 182.507 126.03C182.446 125.962 182.415 125.873 182.419 125.782C182.429 125.619 182.446 125.456 182.472 125.294C182.529 124.928 182.629 124.57 182.771 124.228C182.791 124.179 182.822 124.136 182.862 124.101C182.902 124.067 182.949 124.042 183 124.028C184.306 123.69 185.105 124.028 185.392 124.197C185.43 124.218 185.464 124.247 185.491 124.282C185.518 124.316 185.537 124.356 185.549 124.398C185.647 124.819 185.693 125.25 185.686 125.681Z" fill="#35488B"/>
<path d="M185.446 124.307C185.446 124.307 185.161 123.772 184.31 123.623C184.062 123.579 183.808 123.596 183.569 123.674C183.33 123.752 183.114 123.887 182.94 124.068L182.789 124.186C182.813 124.158 183.4 123.323 184.334 123.486C184.597 123.523 184.846 123.626 185.058 123.786C185.27 123.946 185.438 124.156 185.545 124.398L185.446 124.307Z" fill="#35488B"/>
<path d="M185.687 125.681C185.687 125.787 185.687 125.886 185.687 125.972C185.685 126.019 185.675 126.065 185.656 126.108C185.636 126.15 185.608 126.189 185.574 126.22C185.539 126.252 185.499 126.276 185.454 126.292C185.41 126.308 185.363 126.315 185.316 126.312L182.746 126.145C182.655 126.14 182.569 126.098 182.508 126.03C182.447 125.962 182.415 125.873 182.42 125.782C182.429 125.618 182.447 125.456 182.473 125.294C182.473 125.294 182.607 125.888 184.171 125.968C185.113 126.016 185.517 125.832 185.687 125.681Z" fill="#22356B"/>
<path d="M182.356 124.142L180.166 124.491L179.607 124.586C179.607 124.586 178.975 120.025 177.735 115.504C179.325 115.673 180.932 115.455 182.419 114.871C182.598 119.479 182.356 124.142 182.356 124.142Z" fill="#E9F3FE"/>
<path d="M180.166 124.491L179.608 124.586C179.608 124.586 178.976 120.026 177.735 115.505C178.685 115.611 179.645 115.575 180.583 115.396C180.583 115.396 179.475 121.999 180.166 124.491Z" fill="#C7DCF2"/>
<path d="M182.771 125.365C182.793 125.469 182.812 125.565 182.829 125.649C182.838 125.695 182.837 125.742 182.828 125.788C182.818 125.834 182.8 125.877 182.773 125.916C182.747 125.954 182.712 125.987 182.673 126.012C182.633 126.037 182.589 126.054 182.543 126.062L179.998 126.458C179.907 126.472 179.815 126.45 179.741 126.397C179.667 126.344 179.617 126.264 179.602 126.174C179.575 126.012 179.558 125.85 179.548 125.686C179.525 125.316 179.546 124.945 179.611 124.58C179.62 124.528 179.641 124.479 179.673 124.437C179.704 124.394 179.744 124.359 179.791 124.335C180.993 123.722 181.847 123.88 182.163 123.981C182.205 123.994 182.244 124.015 182.278 124.043C182.312 124.07 182.339 124.105 182.359 124.144C182.546 124.533 182.684 124.943 182.771 125.365Z" fill="#35488B"/>
<path d="M182.241 124.076C182.241 124.071 181.852 123.615 180.985 123.656C180.733 123.666 180.488 123.739 180.271 123.867C180.055 123.994 179.873 124.173 179.742 124.388L179.62 124.535C179.638 124.502 180.032 123.559 180.978 123.515C181.243 123.495 181.508 123.542 181.749 123.652C181.991 123.762 182.2 123.931 182.357 124.144L182.241 124.076Z" fill="#35488B"/>
<path d="M182.771 125.365C182.793 125.47 182.812 125.565 182.829 125.65C182.838 125.695 182.837 125.743 182.828 125.788C182.818 125.834 182.8 125.877 182.773 125.916C182.747 125.954 182.712 125.987 182.673 126.012C182.633 126.037 182.589 126.054 182.543 126.062L179.998 126.458C179.907 126.472 179.815 126.45 179.741 126.397C179.667 126.344 179.617 126.264 179.602 126.174C179.575 126.013 179.558 125.85 179.548 125.686C179.548 125.686 179.806 126.238 181.351 125.971C182.282 125.817 182.637 125.55 182.771 125.365Z" fill="#22356B"/>
<path d="M192.918 96.1717L189.922 94.6661L189.02 94.2134C188.753 93.6036 187.85 91.6954 187.292 90.6027C187.464 91.3526 187.631 92.1263 187.789 92.8867C188.404 95.8384 188.871 98.6158 188.798 99.2105C188.633 100.565 183.373 99.9548 182.01 99.6291C180.648 99.3033 177.566 100.049 175.098 100.001C173.678 99.9747 174.114 96.0013 174.739 92.6348C174.888 91.828 175.049 91.0544 175.198 90.3801C174.4 91.9748 173.58 93.6594 173.383 94.1907L171.683 95.0893L169.754 96.1092C169.75 96.1011 169.748 96.0925 169.747 96.0837C169.63 95.4776 171.604 84.0573 174.214 82.0933C174.737 81.6773 175.341 81.3723 175.987 81.1971C176.634 81.0219 177.309 80.9801 177.973 81.0744C177.973 81.0744 178.829 82.6075 181.304 82.723C182.017 82.7631 182.729 82.6406 183.387 82.3651C184.044 82.0895 184.63 81.6681 185.099 81.1331C185.099 81.1331 187.169 81.1842 188.003 82.0933C188.838 83.0024 192.835 90.6822 192.918 96.1717Z" fill="#0052B4"/>
<path d="M188.796 99.2102C188.631 100.564 183.371 99.9545 182.009 99.6288C180.646 99.303 177.564 100.048 175.096 100.001C173.676 99.9744 174.112 96.001 174.737 92.6345C174.737 92.6345 177.413 97.3428 180.748 97.3106C184.084 97.2784 187.792 92.8864 187.792 92.8864C188.398 95.84 188.869 98.6155 188.796 99.2102Z" fill="#B5493F"/>
<path d="M189.197 94.1914C189.197 94.1914 184.152 97.8542 181.83 98.9631L182.218 100.43C182.218 100.43 189.446 98.9906 192.833 96.0844L189.197 94.1914Z" fill="#0052B4"/>
<path d="M181.829 98.9652C181.829 98.9652 180.095 98.4254 179.561 98.7285C179.027 99.0315 178.284 100.409 178.799 100.433C179.314 100.457 182.226 100.433 182.226 100.433L181.829 98.9652Z" fill="#0052B4"/>
<path d="M179.015 80.0751C179.015 80.0751 180.176 82.3658 181.307 82.7266C181.307 82.7266 179.699 83.3373 177.355 81.0306C177.524 80.7407 177.766 80.4999 178.057 80.3322C178.348 80.1645 178.679 80.0759 179.015 80.0751Z" fill="#E6F1FF"/>
<path d="M175.197 90.3798C174.399 91.9744 173.578 93.6591 173.381 94.1903L171.681 95.089C171.562 95.04 171.467 94.947 171.416 94.8295C170.905 93.804 175.197 90.3798 175.197 90.3798Z" fill="#B5493F"/>
<path d="M183.838 80.0565C183.838 80.0565 182.437 82.3662 181.306 82.7241C181.306 82.7241 183.128 83.4646 185.471 81.1578C185.471 81.1626 185.031 80.0821 183.838 80.0565Z" fill="#E6F1FF"/>
<path d="M190.381 94.514C190.24 94.5968 190.083 94.6481 189.92 94.6646L189.017 94.212C188.75 93.6021 187.847 91.694 187.29 90.6012C187.29 90.6021 191.565 93.8512 190.381 94.514Z" fill="#B5493F"/>
<path d="M173.38 94.1914C173.38 94.1914 178.425 97.8542 180.748 98.9631L180.359 100.43C180.359 100.43 173.132 98.9906 169.744 96.0844L173.38 94.1914Z" fill="#FFB27D"/>
<path d="M180.749 98.9652C180.749 98.9652 182.483 98.4254 183.017 98.7285C183.551 99.0315 184.294 100.409 183.779 100.433C183.264 100.457 180.352 100.433 180.352 100.433L180.749 98.9652Z" fill="#FFB27D"/>
<path d="M174.729 95.0628L173.889 95.7986L171.724 97.6925C170.524 97.5978 169.66 96.1707 169.66 96.1707C170.084 95.4899 170.729 94.9946 171.373 94.6414C172.048 94.277 172.772 94.0128 173.523 93.8573L174.729 95.0628Z" fill="#E6F1FF"/>
<path d="M192.918 96.1718C192.918 96.1718 192.053 97.5999 190.855 97.6936L188.393 95.5383L187.849 95.0649L188.875 93.8944C189.444 93.9973 189.999 94.1582 190.534 94.3745C191.388 94.7183 192.366 95.2827 192.918 96.1718Z" fill="#E6F1FF"/>
<path d="M190.534 94.3745C190.534 94.3745 189.378 95.3925 188.392 95.5383L187.849 95.0649L188.875 93.8944C189.443 93.9973 189.999 94.1582 190.534 94.3745Z" fill="#C7DCF2"/>
<path d="M174.729 95.0627L173.889 95.7985C172.435 95.7871 171.372 94.6422 171.372 94.6422C172.047 94.2779 172.771 94.0137 173.522 93.8582L174.729 95.0627Z" fill="#C7DCF2"/>
<path d="M181.143 82.7162C181.143 82.6799 181.154 82.6445 181.175 82.6144C181.195 82.5843 181.224 82.5609 181.258 82.5472C181.292 82.5334 181.329 82.5299 181.364 82.5371C181.4 82.5443 181.433 82.5619 181.459 82.5876C181.484 82.6133 181.502 82.646 181.509 82.6817C181.516 82.7173 181.512 82.7542 181.498 82.7877C181.484 82.8212 181.461 82.8498 181.43 82.87C181.4 82.8901 181.364 82.9009 181.328 82.9009C181.279 82.9006 181.232 82.881 181.197 82.8464C181.163 82.8118 181.143 82.765 181.143 82.7162Z" fill="#35488B"/>
<path d="M180.955 87.4264C180.955 87.3574 180.976 87.2902 181.015 87.2331C181.054 87.176 181.109 87.1316 181.173 87.1056C181.238 87.0796 181.308 87.0731 181.376 87.0869C181.444 87.1007 181.506 87.1342 181.555 87.1832C181.604 87.2322 181.637 87.2944 181.65 87.3621C181.664 87.4298 181.657 87.5 181.63 87.5636C181.603 87.6273 181.558 87.6817 181.501 87.72C181.443 87.7583 181.375 87.7787 181.306 87.7787C181.212 87.7782 181.123 87.7408 181.057 87.6748C180.991 87.6088 180.954 87.5194 180.955 87.4264Z" fill="#A53D38"/>
<path d="M180.955 93.087C180.955 93.018 180.977 92.9509 181.016 92.8939C181.055 92.8369 181.11 92.7927 181.174 92.7669C181.238 92.741 181.309 92.7346 181.377 92.7485C181.444 92.7624 181.507 92.796 181.555 92.845C181.604 92.894 181.637 92.9563 181.651 93.024C181.664 93.0916 181.657 93.1617 181.63 93.2253C181.603 93.289 181.558 93.3433 181.5 93.3816C181.443 93.4198 181.375 93.4402 181.306 93.4402C181.259 93.4399 181.214 93.4306 181.171 93.4127C181.128 93.3948 181.089 93.3687 181.057 93.3359C181.024 93.3031 180.998 93.2643 180.981 93.2216C180.963 93.1788 180.954 93.1331 180.955 93.087Z" fill="#A53D38"/>
<path d="M109.879 66.6816C109.879 66.6816 105.508 65.7744 104.685 69.5225C104.004 72.6247 107.282 76.618 107.282 76.618H113.088C113.088 76.618 119.577 65.9165 109.879 66.6816Z" fill="#1B2E59"/>
<path d="M122.925 126.459C122.905 126.46 122.885 126.46 122.865 126.459C122.79 126.462 122.716 126.441 122.654 126.397C122.593 126.354 122.549 126.291 122.528 126.219L118.713 109.81L118.437 108.615L119.742 108.559L120.167 110.795L123.109 126.231C123.113 126.258 123.111 126.286 123.104 126.312C123.096 126.338 123.084 126.363 123.066 126.384C123.049 126.406 123.028 126.423 123.003 126.436C122.979 126.449 122.952 126.457 122.925 126.459Z" fill="#E5BD9E"/>
<path d="M103.535 108.618L102.907 111.319L99.4419 126.223C99.4207 126.295 99.376 126.357 99.3149 126.401C99.2538 126.444 99.1799 126.466 99.1049 126.463C99.0849 126.464 99.0649 126.464 99.0449 126.463C99.0178 126.46 98.9915 126.453 98.9675 126.44C98.9435 126.427 98.9223 126.409 98.9052 126.388C98.8882 126.367 98.8756 126.343 98.8682 126.317C98.8608 126.291 98.8587 126.263 98.8622 126.237L101.998 109.781L102.23 108.565L103.535 108.618Z" fill="#E5BD9E"/>
<path d="M103.535 108.618L102.907 111.319C102.888 111.009 102.796 110.707 102.638 110.44C102.48 110.172 102.26 109.945 101.998 109.777L102.23 108.561L103.535 108.618Z" fill="#CC9E7F"/>
<path d="M120.165 110.802C119.521 109.855 118.737 109.855 118.714 109.818L118.437 108.623L119.742 108.566L120.165 110.802Z" fill="#CC9E7F"/>
<path d="M119.833 108.735H100.941C100.007 108.735 99.2495 107.982 99.2495 107.053V105.702C99.2495 104.773 100.007 104.02 100.941 104.02H119.833C120.767 104.02 121.524 104.773 121.524 105.702V107.053C121.524 107.982 120.767 108.735 119.833 108.735Z" fill="#C65447"/>
<path d="M117.002 98.4717C116.443 95.3704 114.812 91.8429 114.812 91.8429C115.997 86.8998 114.788 81.3412 114.788 81.3412C114.135 81.1666 113.47 81.04 112.799 80.9624C112.716 80.5211 112.477 79.1944 112.375 78.0514C112.363 77.9189 112.354 77.7891 112.345 77.6632C112.326 77.3756 112.326 77.0871 112.345 76.7996L111.509 76.8545L108.071 77.0827L107.925 77.0922C107.925 77.0922 107.946 77.398 107.951 77.8611C107.962 78.6925 107.921 80.0221 107.622 80.9766C106.142 81.1291 105.14 81.344 105.14 81.344C104.171 81.5078 104.379 87.5049 106.187 92.1668C107.021 94.3126 104.665 97.6336 104.665 98.4736C104.665 99.3135 117.204 99.5919 117.002 98.4717Z" fill="#FFB27D"/>
<path d="M112.372 78.0496C112.05 78.4284 111.23 79.2409 110.197 79.2589C108.848 79.2826 107.945 77.8593 107.945 77.8593C107.967 77.5973 108.007 77.3372 108.065 77.0809L111.503 76.8527C111.798 77.1067 112.078 77.3756 112.345 77.6585C112.351 77.7873 112.361 77.917 112.372 78.0496Z" fill="#EF9E67"/>
<path d="M110.171 78.4542C108.299 78.4542 106.769 76.9154 106.769 75.0357V72.1863C106.767 71.579 107.007 70.9958 107.436 70.5641C107.866 70.1324 108.449 69.8873 109.06 69.8823H111.124C111.735 69.8873 112.318 70.1324 112.748 70.5641C113.177 70.9958 113.417 71.579 113.416 72.1863V75.1967C113.417 76.0558 113.076 76.8806 112.468 77.4909C111.86 78.1011 111.034 78.4474 110.171 78.4542Z" fill="#FFB27D"/>
<path d="M100.921 104.021C100.921 104.021 103.206 98.6965 105.307 97.6558C107.407 96.615 115.748 97.5393 117 98.472C118.253 99.4048 119.856 104.021 119.856 104.021H100.921Z" fill="#22356B"/>
<path d="M103.011 104.021C103.011 104.021 103.827 100.827 105.644 100.687C107.461 100.548 109.885 102.237 110.746 101.782C111.607 101.328 113.252 100.187 114.779 100.478C116.306 100.769 118.604 104.021 118.604 104.021H103.011Z" fill="#1B2E59"/>
<path d="M111.156 124.143L108.989 124.172C108.989 124.172 107.975 120.701 106.852 116.651C106.749 116.272 106.641 115.888 106.535 115.5C105.608 112.123 104.666 108.539 104.205 106.327C104.095 105.797 104.015 105.318 103.968 104.882C103.532 101.08 105.236 100.764 105.644 100.688C106.098 100.606 108.881 99.3215 110.436 104.286C110.961 105.959 111.706 110.567 111.426 114.872C111.157 119.01 111.156 124.143 111.156 124.143Z" fill="#FFB27D"/>
<path d="M116.222 115.111C115.32 119.817 114.309 124.277 114.309 124.277L111.795 124.029C111.795 124.029 111.634 120.03 111.249 115.62C111.218 115.269 111.221 114.914 111.209 114.559C111.086 111.211 110.999 107.75 111.05 105.6C111.179 100.316 113.276 100.418 113.737 100.442C114.198 100.465 117.199 99.8564 117.583 105.043C117.706 106.73 117.009 111.014 116.222 115.111Z" fill="#FFB27D"/>
<path d="M106.85 116.65C106.747 116.272 106.639 115.887 106.533 115.5C105.606 112.123 104.664 108.539 104.203 106.327C104.093 105.796 104.013 105.317 103.966 104.882C104.014 105.039 107.069 115.005 110.127 115.745C112.088 116.22 109.201 116.506 106.85 116.65Z" fill="#EF9E67"/>
<path d="M111.248 115.619C111.235 115.268 111.221 114.914 111.208 114.559C111.086 111.211 110.998 107.75 111.049 105.599C111.049 105.599 111.676 114.72 114.786 115.418C116.842 115.882 113.647 115.757 111.248 115.619Z" fill="#EF9E67"/>
<path d="M116.22 115.111C115.707 117.783 115.161 120.374 114.783 122.118C114.497 123.444 114.307 124.278 114.307 124.278L111.642 124.073C111.642 124.073 111.41 120.029 111.426 114.868C111.784 115.033 112.598 115.209 114.236 115.197C114.794 115.192 115.451 115.167 116.22 115.111Z" fill="#E9F3FE"/>
<path d="M114.782 122.116C114.497 123.442 114.307 124.276 114.307 124.276L111.641 124.071C111.641 124.071 111.199 119.893 111.214 114.732C111.572 114.897 112.598 115.205 114.235 115.195C114.233 115.195 113.094 120.485 114.782 122.116Z" fill="#C7DCF2"/>
<path d="M114.485 125.681C114.485 125.788 114.485 125.886 114.485 125.972C114.484 126.019 114.474 126.065 114.454 126.108C114.435 126.15 114.407 126.189 114.373 126.22C114.338 126.252 114.298 126.277 114.253 126.292C114.209 126.308 114.162 126.315 114.115 126.312L111.545 126.145C111.453 126.14 111.368 126.098 111.307 126.03C111.246 125.962 111.215 125.873 111.219 125.782C111.249 125.248 111.368 124.723 111.572 124.228C111.592 124.179 111.623 124.136 111.662 124.102C111.701 124.067 111.748 124.042 111.799 124.028C113.105 123.69 113.905 124.028 114.191 124.197C114.23 124.218 114.263 124.247 114.29 124.282C114.317 124.316 114.337 124.356 114.348 124.398C114.447 124.819 114.493 125.25 114.485 125.681Z" fill="#35488B"/>
<path d="M114.246 124.307C114.246 124.307 113.96 123.772 113.109 123.623C112.862 123.579 112.607 123.596 112.368 123.674C112.129 123.752 111.913 123.887 111.74 124.068L111.588 124.186C111.613 124.158 112.199 123.323 113.133 123.486C113.396 123.523 113.646 123.626 113.858 123.786C114.07 123.946 114.237 124.156 114.345 124.398L114.246 124.307Z" fill="#35488B"/>
<path d="M114.483 125.681C114.483 125.787 114.483 125.886 114.483 125.972C114.482 126.019 114.471 126.065 114.452 126.108C114.433 126.15 114.405 126.189 114.37 126.22C114.336 126.252 114.295 126.276 114.251 126.292C114.207 126.308 114.16 126.315 114.113 126.312L111.543 126.145C111.451 126.14 111.365 126.098 111.305 126.03C111.244 125.962 111.212 125.873 111.217 125.782C111.226 125.618 111.243 125.456 111.269 125.294C111.269 125.294 111.404 125.888 112.968 125.968C113.91 126.016 114.313 125.832 114.483 125.681Z" fill="#22356B"/>
<path d="M111.154 124.142L108.965 124.491L108.406 124.586C108.406 124.586 107.774 120.025 106.534 115.504C108.124 115.673 109.732 115.455 111.219 114.871C111.397 119.479 111.154 124.142 111.154 124.142Z" fill="#E9F3FE"/>
<path d="M108.966 124.491L108.407 124.586C108.407 124.586 107.775 120.026 106.535 115.505C107.484 115.611 108.444 115.575 109.383 115.396C109.383 115.396 108.275 121.999 108.966 124.491Z" fill="#C7DCF2"/>
<path d="M111.57 125.365C111.593 125.469 111.612 125.565 111.628 125.649C111.637 125.695 111.637 125.742 111.628 125.788C111.618 125.834 111.6 125.877 111.573 125.916C111.546 125.954 111.512 125.987 111.473 126.012C111.433 126.037 111.389 126.054 111.343 126.062L108.798 126.458C108.707 126.472 108.615 126.45 108.541 126.397C108.467 126.344 108.417 126.264 108.402 126.174C108.375 126.012 108.358 125.85 108.348 125.686C108.325 125.316 108.346 124.945 108.411 124.58C108.42 124.528 108.442 124.48 108.473 124.437C108.504 124.395 108.544 124.36 108.591 124.335C109.793 123.722 110.647 123.88 110.963 123.981C111.005 123.994 111.044 124.015 111.078 124.043C111.112 124.071 111.14 124.105 111.16 124.144C111.346 124.533 111.484 124.943 111.57 125.365Z" fill="#35488B"/>
<path d="M111.039 124.076C111.039 124.071 110.65 123.615 109.783 123.656C109.532 123.667 109.288 123.74 109.072 123.868C108.856 123.995 108.675 124.174 108.545 124.388L108.422 124.535C108.44 124.502 108.834 123.559 109.781 123.515C110.045 123.495 110.311 123.542 110.552 123.652C110.794 123.762 111.003 123.931 111.16 124.144L111.039 124.076Z" fill="#35488B"/>
<path d="M111.57 125.365C111.593 125.47 111.612 125.565 111.628 125.65C111.637 125.695 111.637 125.743 111.628 125.788C111.618 125.834 111.6 125.877 111.573 125.916C111.546 125.954 111.512 125.987 111.473 126.012C111.433 126.037 111.389 126.054 111.343 126.062L108.798 126.458C108.707 126.472 108.615 126.45 108.541 126.397C108.467 126.344 108.417 126.264 108.402 126.174C108.375 126.013 108.358 125.85 108.348 125.686C108.348 125.686 108.606 126.238 110.151 125.971C111.082 125.817 111.437 125.55 111.57 125.365Z" fill="#22356B"/>
<path d="M121.714 96.1717L118.717 94.6661L117.815 94.2134C117.548 93.6036 116.645 91.6954 116.088 90.6027C116.259 91.3526 116.427 92.1263 116.584 92.8867C117.199 95.8384 117.666 98.6158 117.593 99.2105C117.428 100.565 112.163 99.9548 110.806 99.6291C109.448 99.3033 106.361 100.049 103.893 100.001C102.473 99.9747 102.909 96.0013 103.534 92.6348C103.683 91.828 103.845 91.0544 103.993 90.3801C103.195 91.9748 102.375 93.6594 102.178 94.1907L100.478 95.0893L98.5503 96.1092C98.5458 96.1014 98.5429 96.0927 98.5418 96.0837C98.4256 95.4776 100.399 84.0573 103.009 82.0933C103.532 81.6773 104.136 81.3723 104.782 81.1971C105.429 81.0219 106.105 80.9801 106.768 81.0744C106.768 81.0744 107.625 82.6075 110.099 82.723C110.812 82.7629 111.524 82.6404 112.182 82.3649C112.84 82.0894 113.425 81.668 113.894 81.1331C113.894 81.1331 115.963 81.1842 116.798 82.0933C117.632 83.0024 121.631 90.6822 121.714 96.1717Z" fill="#0052B4"/>
<path d="M117.596 99.2102C117.431 100.564 112.166 99.9545 110.809 99.6288C109.451 99.303 106.364 100.048 103.896 100.001C102.476 99.9744 102.912 96.001 103.537 92.6345C103.537 92.6345 106.213 97.3428 109.548 97.3106C112.884 97.2784 116.592 92.8864 116.592 92.8864C117.199 95.84 117.669 98.6155 117.596 99.2102Z" fill="#B5493F"/>
<path d="M117.997 94.1914C117.997 94.1914 112.952 97.8542 110.63 98.9631L111.018 100.43C111.018 100.43 118.246 98.9906 121.634 96.0844L117.997 94.1914Z" fill="#FFB27D"/>
<path d="M110.63 98.9652C110.63 98.9652 108.895 98.4254 108.361 98.7285C107.827 99.0315 107.085 100.409 107.595 100.433C108.105 100.457 111.022 100.433 111.022 100.433L110.63 98.9652Z" fill="#0052B4"/>
<path d="M107.812 80.0751C107.812 80.0751 108.973 82.3658 110.103 82.7266C110.103 82.7266 108.496 83.3373 106.152 81.0306C106.32 80.7407 106.562 80.4999 106.854 80.3322C107.145 80.1645 107.476 80.0759 107.812 80.0751Z" fill="#E6F1FF"/>
<path d="M103.993 90.3798C103.195 91.9744 102.375 93.6591 102.178 94.1903L100.478 95.089C100.359 95.0397 100.264 94.9468 100.212 94.8295C99.7012 93.804 103.993 90.3798 103.993 90.3798Z" fill="#B5493F"/>
<path d="M112.686 80.0751C112.686 80.0751 111.234 82.3658 110.103 82.7266C110.103 82.7266 112.001 83.3373 114.345 81.0306C114.177 80.7406 113.935 80.4998 113.644 80.3321C113.353 80.1644 113.022 80.0757 112.686 80.0751Z" fill="#E6F1FF"/>
<path d="M119.181 94.514C119.039 94.5969 118.881 94.6483 118.718 94.6646L117.817 94.212C117.549 93.6021 116.647 91.694 116.089 90.6012C116.089 90.6021 120.364 93.8512 119.181 94.514Z" fill="#B5493F"/>
<path d="M102.18 94.1914C102.18 94.1914 107.225 97.8542 109.548 98.9631L109.159 100.43C109.159 100.43 101.932 98.9906 98.5442 96.0844L102.18 94.1914Z" fill="#FFB27D"/>
<path d="M109.546 98.9652C109.546 98.9652 111.28 98.4254 111.814 98.7285C112.348 99.0315 113.091 100.409 112.576 100.433C112.061 100.457 109.149 100.433 109.149 100.433L109.546 98.9652Z" fill="#FFB27D"/>
<path d="M103.528 95.0628L102.689 95.7986L100.523 97.6925C99.3239 97.5978 98.4596 96.1707 98.4596 96.1707C98.8832 95.4899 99.5286 94.9946 100.173 94.6414C100.847 94.2772 101.571 94.013 102.322 93.8573L103.528 95.0628Z" fill="#E6F1FF"/>
<path d="M121.714 96.1718C121.714 96.1718 120.849 97.5999 119.651 97.6936L117.189 95.5383L116.645 95.0649L117.672 93.8944C118.241 93.9974 118.797 94.1583 119.333 94.3745C120.184 94.7183 121.162 95.2827 121.714 96.1718Z" fill="#E6F1FF"/>
<path d="M119.334 94.3745C119.334 94.3745 118.176 95.3925 117.191 95.5383L116.648 95.0649L117.675 93.8944C118.243 93.9975 118.799 94.1583 119.334 94.3745Z" fill="#C7DCF2"/>
<path d="M103.528 95.0627L102.689 95.7985C101.234 95.7871 100.172 94.6422 100.172 94.6422C100.846 94.278 101.57 94.0139 102.321 93.8582L103.528 95.0627Z" fill="#C7DCF2"/>
<path d="M109.943 82.7162C109.943 82.6799 109.954 82.6445 109.974 82.6144C109.995 82.5843 110.024 82.5609 110.057 82.5472C110.091 82.5334 110.128 82.5299 110.164 82.5371C110.2 82.5443 110.233 82.5619 110.258 82.5876C110.284 82.6133 110.301 82.646 110.309 82.6817C110.316 82.7173 110.312 82.7542 110.298 82.7877C110.284 82.8212 110.26 82.8498 110.23 82.87C110.199 82.8901 110.164 82.9009 110.127 82.9009C110.079 82.8994 110.032 82.8795 109.998 82.8451C109.964 82.8108 109.944 82.7646 109.943 82.7162Z" fill="#35488B"/>
<path d="M109.754 87.4264C109.755 87.3574 109.776 87.2902 109.815 87.2331C109.854 87.176 109.909 87.1316 109.973 87.1056C110.037 87.0796 110.108 87.0731 110.176 87.0869C110.244 87.1007 110.306 87.1342 110.355 87.1832C110.404 87.2322 110.437 87.2944 110.45 87.3621C110.463 87.4298 110.456 87.5 110.43 87.5636C110.403 87.6273 110.358 87.6817 110.3 87.72C110.242 87.7583 110.175 87.7787 110.105 87.7787C110.012 87.7782 109.922 87.7408 109.856 87.6748C109.791 87.6088 109.754 87.5194 109.754 87.4264Z" fill="#A53D38"/>
<path d="M109.754 93.087C109.755 93.018 109.776 92.9509 109.815 92.8939C109.854 92.8369 109.909 92.7927 109.974 92.7669C110.038 92.741 110.108 92.7346 110.176 92.7485C110.244 92.7624 110.306 92.796 110.355 92.845C110.404 92.894 110.437 92.9563 110.45 93.024C110.463 93.0916 110.456 93.1617 110.429 93.2253C110.403 93.289 110.358 93.3433 110.3 93.3816C110.242 93.4198 110.175 93.4402 110.105 93.4402C110.059 93.4399 110.013 93.4306 109.97 93.4127C109.928 93.3948 109.889 93.3687 109.856 93.3359C109.824 93.3031 109.798 93.2643 109.78 93.2216C109.763 93.1788 109.754 93.1331 109.754 93.087Z" fill="#A53D38"/>
<path d="M105.662 70.9092C105.662 70.9092 101.522 71.3315 102.623 75.3599C103.725 79.3882 103.159 80.0786 103.159 80.0786C103.482 80.0607 103.786 79.9259 104.016 79.6998C104.016 79.6998 103.825 80.0047 103.107 81.1363C101.59 83.5293 105.452 84.9308 105.452 84.9308C105.452 84.9308 104.835 83.3513 105.881 82.7982C107.88 81.7395 108.723 78.9886 107.469 77.7727C104.594 74.983 105.662 70.9092 105.662 70.9092Z" fill="#1B2E59"/>
<path d="M114.341 70.9092C114.341 70.9092 118.481 71.3315 117.38 75.3599C116.279 79.3882 116.843 80.0786 116.843 80.0786C116.521 80.0607 116.216 79.9259 115.987 79.6998C115.987 79.6998 116.177 80.0047 116.897 81.1363C118.413 83.5293 114.55 84.9308 114.55 84.9308C114.55 84.9308 115.167 83.3513 114.122 82.7982C112.123 81.7395 111.28 78.9886 112.534 77.7727C115.414 74.983 114.341 70.9092 114.341 70.9092Z" fill="#1B2E59"/>
<path d="M106.769 72.9414C106.769 72.9414 109.016 73.1791 109.767 72.6829C109.767 72.6829 110.26 71.1952 109.767 70.807C109.767 70.807 110.689 71.6053 110.517 72.6611C110.517 72.6611 111.917 72.6185 112.23 72.4462C112.23 72.4462 112.135 71.7776 111.95 71.4992C111.95 71.4992 112.432 72.038 112.539 72.4263C112.539 72.4263 113.568 72.5342 113.783 72.1422C113.997 71.7502 112.131 67.0286 109.17 68.3477C106.209 69.6669 105.917 72.1223 106.769 72.9414Z" fill="#1B2E59"/>
<path d="M104.609 70.8157C104.609 70.8157 104.181 71.0732 104.21 71.3469C104.238 71.6206 105.249 72.5685 105.249 72.5685L104.609 70.8157Z" fill="#C65447"/>
<path d="M115.184 70.8157C115.184 70.8157 115.611 71.0732 115.583 71.3469C115.554 71.6206 114.544 72.5685 114.544 72.5685L115.184 70.8157Z" fill="#C65447"/>
<path d="M30.2967 67.5265C30.2967 67.5265 27.8856 66.1259 26.2037 67.1155C24.5217 68.1051 22.4695 74.2925 22.7846 75.5605C23.0996 76.8284 24.4675 77.7792 24.4675 77.7792C24.4675 77.7792 24.2704 77.0292 24.4675 76.5055C24.4675 76.5055 24.6683 77.9477 25.7544 78.3994C26.8405 78.8511 30.9145 79.1845 31.7512 78.9809C32.7116 78.746 33.2894 78.4345 33.6959 77.3587C34.1023 76.283 36.6153 66.5596 30.2967 67.5265Z" fill="#1B2E59"/>
<path d="M41.6706 126.459C41.6506 126.46 41.6306 126.46 41.6106 126.459C41.5356 126.462 41.4616 126.441 41.4005 126.397C41.3394 126.354 41.2947 126.291 41.2737 126.219L37.4586 109.81L37.1816 108.615L38.4856 108.559L38.9121 110.795L41.8534 126.231C41.8571 126.258 41.8552 126.285 41.848 126.312C41.8407 126.338 41.8281 126.362 41.8111 126.384C41.794 126.405 41.7727 126.423 41.7486 126.436C41.7244 126.449 41.6979 126.457 41.6706 126.459Z" fill="#E5BD9E"/>
<path d="M22.2793 108.618L21.652 111.319L18.1862 126.223C18.1652 126.295 18.1205 126.358 18.0594 126.401C17.9983 126.444 17.9243 126.466 17.8493 126.463C17.8293 126.464 17.8093 126.464 17.7893 126.463C17.7622 126.46 17.7359 126.453 17.7119 126.44C17.688 126.427 17.6669 126.409 17.6499 126.388C17.6329 126.367 17.6204 126.343 17.6131 126.317C17.6058 126.291 17.6039 126.263 17.6075 126.237L20.742 109.781L20.9752 108.565L22.2793 108.618Z" fill="#E5BD9E"/>
<path d="M22.2793 108.618L21.652 111.319C21.6329 111.009 21.5406 110.707 21.3825 110.44C21.2243 110.172 21.0049 109.945 20.742 109.777L20.9752 108.561L22.2793 108.618Z" fill="#CC9E7F"/>
<path d="M38.9097 110.802C38.2643 109.855 37.4819 109.855 37.4571 109.818L37.1801 108.623L38.4842 108.566L38.9097 110.802Z" fill="#CC9E7F"/>
<path d="M38.5806 108.735H19.6888C18.7546 108.735 17.9973 107.982 17.9973 107.053V105.702C17.9973 104.773 18.7546 104.02 19.6888 104.02H38.5806C39.5148 104.02 40.2721 104.773 40.2721 105.702V107.053C40.2721 107.982 39.5148 108.735 38.5806 108.735Z" fill="#C65447"/>
<path d="M35.7461 98.4717C35.1864 95.3704 33.5568 91.8429 33.5568 91.8429C34.7429 86.8998 33.5321 81.3412 33.5321 81.3412C32.8798 81.1666 32.2155 81.04 31.5446 80.9624C31.4608 80.5211 31.2209 79.1944 31.1191 78.0514C31.1086 77.9189 31.0991 77.7891 31.0905 77.6632C31.0711 77.3756 31.0711 77.0871 31.0905 76.7996L30.2557 76.8545L26.8166 77.0827L26.671 77.0922C26.671 77.0922 26.6919 77.398 26.6976 77.8611C26.7081 78.6925 26.6672 80.0221 26.3673 80.9766C24.8881 81.1291 23.8858 81.344 23.8858 81.344C22.9177 81.5078 23.1243 87.5049 24.9329 92.1668C25.7657 94.3126 23.4099 97.6336 23.4099 98.4736C23.4099 99.3135 35.9479 99.5919 35.7461 98.4717Z" fill="#FFB27D"/>
<path d="M31.116 78.0496C30.7933 78.4284 29.9794 79.2409 28.9419 79.2589C27.5912 79.2826 26.6898 77.8593 26.6898 77.8593C26.711 77.5974 26.7508 77.3373 26.8087 77.0809L30.2479 76.8527C30.5413 77.1079 30.8216 77.3778 31.0874 77.6614C31.096 77.7873 31.1055 77.917 31.116 78.0496Z" fill="#EF9E67"/>
<path d="M28.3681 78.4347C26.5215 78.1308 25.2584 76.3637 25.5601 74.5077L26.017 71.6924C26.1132 71.0934 26.4443 70.5568 26.9378 70.2005C27.4312 69.8442 28.0466 69.6972 28.6489 69.7918L30.6859 70.1261C31.2878 70.2302 31.8241 70.5664 32.1783 71.0616C32.5325 71.5569 32.6758 72.1711 32.5773 72.771L32.0937 75.7397C31.9589 76.5886 31.4907 77.3494 30.792 77.8548C30.0933 78.3602 29.2214 78.5688 28.3681 78.4347Z" fill="#FFB27D"/>
<path d="M27.6034 76.1573C27.6034 76.1573 27.6034 76.6147 28.6885 76.8088C28.6885 76.8088 29.6014 76.9726 29.689 76.4897C29.689 76.4897 28.898 75.9385 27.6034 76.1573Z" fill="white"/>
<path d="M19.6675 104.021C19.6675 104.021 21.9567 98.6965 24.0527 97.6558C26.1487 96.615 34.4947 97.5393 35.7474 98.472C37.0001 99.4048 38.603 104.021 38.603 104.021H19.6675Z" fill="#22356B"/>
<path d="M21.7548 104.021C21.7548 104.021 22.5715 100.827 24.3877 100.687C26.2038 100.548 28.6283 102.237 29.4897 101.782C30.3512 101.328 31.9969 100.187 33.5237 100.478C35.0505 100.769 37.3474 104.021 37.3474 104.021H21.7548Z" fill="#1B2E59"/>
<path d="M35.4572 114.734C35.423 119.527 35.2364 124.096 35.2364 124.096L32.7206 124.311C32.7206 124.311 31.8373 120.409 30.6598 116.142C30.5646 115.804 30.5047 115.455 30.4276 115.107C29.7013 111.839 28.9874 108.451 28.6485 106.327C27.8194 101.108 29.8993 100.824 30.3562 100.764C30.8131 100.703 33.6553 99.5555 34.9708 104.585C35.3982 106.218 35.4858 110.561 35.4572 114.734Z" fill="#FFB27D"/>
<path d="M30.6603 116.142C30.5829 115.8 30.5055 115.455 30.4281 115.107C29.7018 111.838 28.9879 108.451 28.6491 106.327C28.6491 106.327 30.9174 115.18 34.1023 115.298C36.2079 115.378 33.0438 115.839 30.6603 116.142Z" fill="#EF9E67"/>
<path d="M35.459 114.734C35.4399 117.454 35.3705 120.102 35.3153 121.884C35.2734 123.24 35.2381 124.095 35.2381 124.095L32.5786 124.379C32.5786 124.379 31.6191 120.447 30.6987 115.369C31.0794 115.464 31.9133 115.49 33.521 115.18C34.0721 115.073 34.7137 114.929 35.459 114.734Z" fill="#E9F3FE"/>
<path d="M35.3142 121.881C35.2723 123.237 35.2371 124.093 35.2371 124.093L32.5776 124.377C32.5776 124.377 31.3858 120.35 30.4663 115.273C30.8471 115.367 31.9122 115.488 33.5199 115.178C33.5199 115.179 33.3581 120.589 35.3142 121.881Z" fill="#C7DCF2"/>
<path d="M35.6651 125.445C35.6842 125.549 35.7003 125.646 35.7137 125.729C35.721 125.775 35.719 125.823 35.7077 125.868C35.6964 125.914 35.676 125.956 35.6478 125.994C35.6195 126.031 35.584 126.063 35.5433 126.086C35.5027 126.11 35.4577 126.125 35.411 126.131L32.8542 126.438C32.7633 126.449 32.6715 126.424 32.5991 126.368C32.5266 126.312 32.4794 126.23 32.4678 126.139C32.4014 125.608 32.4233 125.07 32.5325 124.547C32.5436 124.495 32.5666 124.446 32.5996 124.405C32.6326 124.364 32.6748 124.33 32.7229 124.308C33.946 123.74 34.7932 123.929 35.1026 124.037C35.144 124.051 35.1823 124.074 35.2149 124.103C35.2476 124.132 35.2742 124.167 35.2929 124.207C35.4674 124.603 35.5924 125.019 35.6651 125.445Z" fill="#35488B"/>
<path d="M35.1843 124.137C35.1843 124.137 34.8103 123.664 33.9421 123.672C33.6904 123.675 33.4432 123.738 33.2223 123.859C33.0015 123.979 32.8138 124.151 32.6761 124.361L32.5486 124.505C32.5676 124.473 32.9931 123.544 33.9412 123.533C34.2064 123.522 34.4702 123.578 34.7076 123.696C34.9449 123.814 35.148 123.991 35.2976 124.209L35.1843 124.137Z" fill="#35488B"/>
<path d="M35.6651 125.445C35.6842 125.549 35.7003 125.645 35.7137 125.729C35.721 125.775 35.719 125.822 35.7077 125.868C35.6964 125.913 35.676 125.956 35.6478 125.993C35.6195 126.031 35.584 126.062 35.5433 126.086C35.5027 126.109 35.4577 126.124 35.411 126.13L32.8542 126.437C32.7633 126.448 32.6715 126.423 32.5991 126.367C32.5266 126.311 32.4794 126.229 32.4678 126.139C32.4469 125.976 32.4348 125.813 32.4316 125.649C32.4316 125.649 32.6705 126.21 34.223 126.002C35.1616 125.878 35.5261 125.625 35.6651 125.445Z" fill="#22356B"/>
<path d="M25.8865 124.58L23.7924 124.019C23.7924 124.019 23.7476 120.402 23.7543 116.197C23.7543 115.804 23.7543 115.406 23.7543 115.004C23.7686 111.5 23.8228 107.794 23.9732 105.539C24.0094 104.998 24.0636 104.516 24.1331 104.084C24.7347 100.304 26.4605 100.462 26.8736 100.499C27.3324 100.543 30.3574 100.061 30.523 105.26C30.5792 107.012 30.0585 111.651 28.6336 115.72C27.2657 119.637 25.8865 124.58 25.8865 124.58Z" fill="#FFB27D"/>
<path d="M23.7526 116.2C23.7526 115.807 23.7526 115.408 23.7526 115.007C23.7668 111.503 23.8211 107.797 23.9715 105.542C24.0077 105.001 24.0619 104.518 24.1314 104.086C24.1314 104.25 24.4017 114.675 27.1469 116.217C28.9117 117.204 26.057 116.697 23.7526 116.2Z" fill="#EF9E67"/>
<path d="M25.8857 124.579L23.6831 124.321L23.1215 124.255C23.1215 124.255 23.7374 119.692 23.7574 115.004C24.6425 115.363 25.5768 115.588 26.5292 115.671C27.2436 115.716 27.9606 115.698 28.6719 115.617C27.6048 120.108 25.8857 124.579 25.8857 124.579Z" fill="#E9F3FE"/>
<path d="M23.6815 124.321L23.1199 124.255C23.1199 124.255 23.7358 119.692 23.7557 115.004C24.6408 115.363 25.5752 115.588 26.5276 115.671C26.5276 115.671 23.6863 121.733 23.6815 124.321Z" fill="#C7DCF2"/>
<path d="M26.0509 125.805C26.0585 125.911 26.0633 126.009 26.0661 126.096C26.068 126.143 26.0605 126.189 26.0439 126.233C26.0274 126.277 26.0021 126.317 25.9697 126.351C25.9373 126.385 25.8984 126.412 25.8553 126.431C25.8122 126.449 25.7657 126.459 25.7187 126.46H23.1429C23.0515 126.46 22.9637 126.424 22.8986 126.36C22.8334 126.296 22.796 126.21 22.7945 126.119C22.7925 125.955 22.7995 125.791 22.8155 125.627C22.8481 125.258 22.9252 124.895 23.0449 124.544C23.0617 124.494 23.0898 124.449 23.1269 124.412C23.164 124.375 23.2093 124.347 23.259 124.33C24.5403 123.907 25.3598 124.194 25.6568 124.34C25.6963 124.359 25.7317 124.386 25.761 124.418C25.7902 124.451 25.8127 124.489 25.8272 124.53C25.9536 124.944 26.0287 125.373 26.0509 125.805Z" fill="#35488B"/>
<path d="M25.7236 124.449C25.7236 124.449 25.4076 123.934 24.5443 123.842C24.2942 123.814 24.0411 123.849 23.8075 123.942C23.574 124.035 23.3673 124.184 23.2059 124.376L23.0632 124.504C23.086 124.474 23.6171 123.602 24.5595 123.703C24.8244 123.723 25.0798 123.81 25.3017 123.955C25.5235 124.101 25.7044 124.3 25.8274 124.535L25.7236 124.449Z" fill="#35488B"/>
<path d="M26.0509 125.805C26.0585 125.911 26.0633 126.009 26.0661 126.096C26.068 126.143 26.0605 126.189 26.0439 126.233C26.0274 126.277 26.0021 126.317 25.9697 126.351C25.9373 126.385 25.8984 126.412 25.8553 126.431C25.8122 126.449 25.7657 126.459 25.7187 126.46H23.1429C23.0515 126.46 22.9637 126.424 22.8986 126.36C22.8334 126.296 22.796 126.21 22.7945 126.119C22.7925 125.955 22.7995 125.791 22.8155 125.627C22.8155 125.627 22.9878 126.213 24.5545 126.189C25.5007 126.177 25.8919 125.967 26.0509 125.805Z" fill="#22356B"/>
<path d="M39.5159 94.4196L36.0263 94.4764C35.7598 93.8665 35.2934 91.8334 34.8327 90.6062C35.004 91.3562 35.1725 92.1298 35.3295 92.8902C35.9454 95.8419 36.4118 98.6193 36.3395 99.214C36.1739 100.568 30.9081 99.9583 29.5507 99.6326C28.1934 99.3068 25.1074 100.052 22.6383 100.005C21.219 99.9782 21.654 96.0048 22.2794 92.6383C22.4288 91.8315 22.5897 91.0579 22.7391 90.3836C21.9415 91.9783 21.5788 93.9451 21.3856 94.4764C21.3856 94.4764 17.9769 94.2548 17.976 94.2463C17.8608 93.6412 19.1439 84.0561 21.7549 82.0968C22.2784 81.6807 22.882 81.3757 23.5284 81.2005C24.1749 81.0252 24.8506 80.9835 25.5139 81.0779C25.5139 81.0779 26.3705 82.611 28.8454 82.7265C29.5579 82.7666 30.2702 82.6441 30.9279 82.3686C31.5857 82.093 32.1714 81.6717 32.6405 81.1366C32.6405 81.1366 34.7089 81.1877 35.5447 82.0968C36.3804 83.0059 38.2289 86.2663 39.5159 94.4196Z" fill="#C65447"/>
<path d="M36.34 99.2102C36.1744 100.564 30.9086 99.9545 29.5512 99.6288C28.1939 99.303 25.1079 100.048 22.6388 100.001C21.2195 99.9744 21.6545 96.001 22.2799 92.6345C22.2799 92.6345 24.9556 97.3428 28.291 97.3106C31.6263 97.2784 35.3301 92.8864 35.3301 92.8864C35.9459 95.84 36.4123 98.6155 36.34 99.2102Z" fill="#B5493F"/>
<path d="M26.5592 80.0751C26.5592 80.0751 27.7195 82.3658 28.8503 82.7266C28.8503 82.7266 27.2426 83.3373 24.8991 81.0306C25.0674 80.7406 25.3094 80.4996 25.6007 80.3319C25.8921 80.1643 26.2226 80.0757 26.5592 80.0751Z" fill="#E6F1FF"/>
<path d="M31.4359 80.0751C31.4359 80.0751 29.9843 82.3658 28.8544 82.7266C28.8544 82.7266 30.7524 83.3373 33.0959 81.0306C32.9275 80.7407 32.6855 80.4999 32.3942 80.3322C32.1029 80.1645 31.7724 80.0759 31.4359 80.0751Z" fill="#E6F1FF"/>
<path d="M28.6868 82.7162C28.687 82.6799 28.698 82.6444 28.7185 82.6143C28.7389 82.5842 28.7679 82.5608 28.8017 82.5471C28.8355 82.5333 28.8727 82.5299 28.9085 82.5372C28.9442 82.5444 28.977 82.5621 29.0027 82.5879C29.0284 82.6137 29.0458 82.6466 29.0528 82.6822C29.0597 82.7179 29.0559 82.7548 29.0417 82.7883C29.0276 82.8218 29.0038 82.8504 28.9733 82.8704C28.9428 82.8905 28.9071 82.901 28.8705 82.9009C28.8463 82.9007 28.8223 82.8959 28.7999 82.8865C28.7776 82.8772 28.7573 82.8635 28.7402 82.8464C28.7232 82.8292 28.7097 82.8089 28.7005 82.7866C28.6914 82.7642 28.6867 82.7403 28.6868 82.7162Z" fill="#35488B"/>
<path d="M28.4984 87.4264C28.499 87.3574 28.5201 87.2902 28.559 87.2331C28.598 87.176 28.653 87.1316 28.7172 87.1056C28.7815 87.0796 28.852 87.0731 28.92 87.0869C28.9879 87.1007 29.0502 87.1342 29.0991 87.1832C29.1479 87.2322 29.1811 87.2944 29.1944 87.3621C29.2077 87.4298 29.2006 87.5 29.1739 87.5636C29.1472 87.6273 29.1022 87.6817 29.0445 87.72C28.9868 87.7583 28.9191 87.7787 28.8497 87.7787C28.7562 87.7782 28.6667 87.7408 28.6009 87.6748C28.535 87.6088 28.4982 87.5194 28.4984 87.4264Z" fill="#A53D38"/>
<path d="M28.4985 93.087C28.4992 93.018 28.5205 92.9509 28.5595 92.8939C28.5986 92.8369 28.6537 92.7927 28.7179 92.7669C28.7822 92.741 28.8527 92.7346 28.9205 92.7485C28.9884 92.7624 29.0507 92.796 29.0994 92.845C29.1481 92.894 29.1812 92.9563 29.1944 93.024C29.2077 93.0916 29.2005 93.1617 29.1738 93.2253C29.1471 93.289 29.1021 93.3433 29.0444 93.3816C28.9868 93.4198 28.919 93.4402 28.8497 93.4402C28.8033 93.4399 28.7575 93.4306 28.7147 93.4127C28.672 93.3948 28.6332 93.3687 28.6006 93.3359C28.5679 93.3031 28.5421 93.2643 28.5246 93.2216C28.5071 93.1788 28.4982 93.1331 28.4985 93.087Z" fill="#A53D38"/>
<path d="M38.9007 103.679L38.9103 102.694C38.9103 102.694 40.2638 94.3299 39.3262 94.0704C38.3886 93.811 36.6248 94.7021 36.6248 94.7021L37.1798 102.694C37.1704 102.878 37.1433 103.06 37.0988 103.239C37.075 103.239 37.0513 103.248 37.0284 103.255C36.1079 103.518 36.661 105.421 37.3473 105.454C37.8508 105.478 38.5019 104.72 38.9436 104.46C39.1349 104.346 39.0787 103.814 38.9007 103.679Z" fill="#FFB27D"/>
<path d="M36.0266 94.4726C36.0266 94.4726 35.8087 95.6515 36.3465 95.8239C36.8843 95.9962 39.6313 96.0824 39.8027 95.8239C39.974 95.5653 39.7361 93.5862 39.3267 93.4404C38.9174 93.2945 36.2827 93.8353 36.0266 94.4726Z" fill="#B5493F"/>
<path d="M20.3846 103.255C20.3617 103.248 20.3379 103.243 20.3151 103.239C20.2706 103.06 20.2435 102.878 20.2342 102.694L20.7891 94.7018C20.7891 94.7018 19.0243 93.8116 18.0868 94.0702C17.1492 94.3287 18.5037 102.694 18.5037 102.694L18.5122 103.679C18.3342 103.813 18.2781 104.342 18.4704 104.459C18.9111 104.72 19.5622 105.478 20.0657 105.454C20.752 105.42 21.305 103.518 20.3846 103.255Z" fill="#FFB27D"/>
<path d="M21.387 94.4726C21.387 94.4726 21.605 95.6515 21.0672 95.8239C20.5293 95.9962 17.7822 96.0824 17.6109 95.8239C17.4396 95.5653 17.6785 93.5862 18.0868 93.4404C18.4952 93.2945 21.1319 93.8353 21.387 94.4726Z" fill="#B5493F"/>
<path d="M30.0348 70.4805C30.0348 70.4805 30.2442 72.3744 31.4626 73.097C31.4626 73.097 31.0314 71.9549 31.3255 71.4796C31.3255 71.4796 31.5711 73.6169 32.3003 74.4578C32.3003 74.4578 34.1926 70.4218 30.7982 69.6453C27.4038 68.8688 25.7323 70.4502 25.5001 71.7447C25.3626 72.5367 25.4033 73.349 25.6191 74.1235C25.6191 74.1235 26.3853 71.7807 27.9987 71.3262C29.6122 70.8716 30.0348 70.4805 30.0348 70.4805Z" fill="#1B2E59"/>
<path d="M218.689 53.367C218.689 53.367 212.865 65.0884 212.121 66.9643C211.836 67.6859 201.484 64.489 201.484 64.489C201.484 64.489 200.604 63.722 200.524 62.864C200.504 62.6462 200.244 62.4095 199.864 62.1832L196.764 63.0733C197.072 63.8489 197.459 64.6083 197.676 64.8034C198.126 65.2115 200.817 66.3933 200.817 66.3933C202.479 68.024 212.817 72.219 213.74 71.72C214.71 71.1954 219.195 63.0752 220.931 60.9313C222.667 58.7874 221.979 51.759 218.689 53.367Z" fill="#FFB27D"/>
<path d="M189.092 52.2907L185.958 53.1307L191.84 64.2669L199.36 62.4459L205.65 60.1836L201.359 48.7908L195.284 53.4574L189.092 52.2907Z" fill="#A03732"/>
<path d="M199.361 62.2509L195.078 51.9404C195.078 51.9404 189.867 50.074 186.511 52.3031L191.983 63.2945C191.983 63.2945 194.923 61.1032 199.361 62.2509Z" fill="#E9F3FE"/>
<path d="M201.682 47.9488C197.297 47.6893 195.078 51.9402 195.078 51.9402L199.362 62.2507C200.703 59.9108 206.171 59.7176 206.171 59.7176L201.682 47.9488Z" fill="#C7DCF2"/>
<path d="M205.568 120.651C205.568 120.651 206.187 123.586 205.568 124.391C204.95 125.196 203.262 125.387 203.3 126.541H211.477C211.477 126.541 211.199 124.475 210.334 123.596C209.47 122.716 208.612 117.581 208.612 117.581L205.568 120.651Z" fill="#163560"/>
<path d="M216.939 120.651C216.939 120.651 217.559 123.586 216.939 124.391C216.32 125.196 214.634 125.387 214.672 126.541H222.849C222.849 126.541 222.571 124.475 221.706 123.596C220.842 122.716 219.984 117.581 219.984 117.581L216.939 120.651Z" fill="#163560"/>
<path d="M233.627 95.4557C233.057 95.5772 232.48 95.6645 231.899 95.7171C228.948 96.0372 223.419 96.2853 218.103 96.3402C216.214 96.361 214.352 96.3582 212.639 96.3269H212.618C211.131 96.2985 209.762 96.2484 208.582 96.1745C207.279 96.094 206.217 95.9794 205.511 95.8317C204.996 95.7256 204.668 95.6006 204.569 95.4529C203.722 94.2219 201.618 91.7673 201.886 89.8999C201.938 89.5085 202.109 89.142 202.374 88.8488C202.374 88.8488 203.819 88.3005 206.087 87.5231C210.588 85.9918 218.339 83.579 224.545 82.7977C228.209 82.3356 231.335 82.4417 232.936 83.6349C238.625 87.8753 237.252 94.5694 233.627 95.4557Z" fill="#B23636"/>
<path d="M220.916 119.011C220.022 120.957 217.07 121.053 217.07 121.053C216.398 119.517 215.774 118.052 215.198 116.657C211.187 106.968 209.349 100.565 208.609 96.3534C208.599 96.2928 208.589 96.236 208.58 96.1763C207.431 89.4454 209.136 88.4217 209.136 88.4217L209.238 88.4009C210.642 88.1073 212.105 88.3769 213.31 89.1508C215.343 90.4349 216.888 93.0334 218.046 96.1868C218.063 96.2369 218.082 96.289 218.101 96.3421C219.591 100.462 220.427 105.501 220.834 109.789C221.286 114.538 221.211 118.367 220.916 119.011Z" fill="#892828"/>
<path d="M230.937 51.3775C230.937 51.3775 231.21 51.4088 231.621 51.4722C232.613 51.637 234.404 52.0186 235.054 52.6976C235.974 53.6578 240.802 66.5914 240.55 68.4673C240.298 70.3432 234.892 73.2248 233.055 73.4464L230.937 51.3728V51.3775Z" fill="#0052B4"/>
<path d="M224.425 53.3074C224.406 53.3235 224.44 56.0896 226.821 55.4949C228.385 55.1047 231.4 52.4949 230.826 51.1995C230.553 50.5839 229.025 49.1521 228.017 45.3813L227.744 45.5168L223.175 47.7999C223.175 47.7999 223.7 49.2951 224.093 50.7355C224.427 51.9381 224.665 53.1028 224.425 53.3074Z" fill="#F4A269"/>
<path d="M221.221 48.7761C221.221 48.7761 228.091 50.3329 228.993 46.0176C229.894 41.7023 231.389 38.9978 227.039 37.8189C222.688 36.6399 221.491 38.103 220.841 39.4732C220.191 40.8434 219.456 48.2553 221.221 48.7761Z" fill="#FFB27D"/>
<path d="M235.052 89.1444C235.052 89.1444 230.856 92.5838 231.101 94.9635C231.346 97.3432 227.784 94.49 227.784 94.49L229.407 89.1463L235.052 89.1444Z" fill="#A03732"/>
<path d="M226.569 46.1705C228.212 46.732 230.723 43.4906 231.442 41.6014C232.325 39.288 230.3 34.6971 225.017 35.3676C223.952 35.4981 222.931 35.8668 222.029 36.4461C220.873 37.2037 217.796 39.1649 222.769 41.2576C224.636 42.0436 225.136 45.6809 226.569 46.1705Z" fill="#1C468A"/>
<path d="M227.186 95.4559C225.956 95.7579 222.332 96.024 218.048 96.1869C216.317 96.2523 214.475 96.3024 212.64 96.329C212.632 96.3299 212.625 96.3299 212.618 96.329C211.265 96.3488 209.914 96.3593 208.611 96.3536C207.741 96.3536 206.898 96.3422 206.083 96.3252C206.409 97.2267 206.703 98.1708 206.968 99.1424C209.262 107.536 209.405 117.904 208.9 119.001C208.005 120.947 205.053 121.042 205.053 121.042C202.281 114.697 200.35 109.56 199.025 105.407C194.405 90.9379 197.121 88.4124 197.121 88.4124C197.121 88.4124 199.501 86.9399 203.017 86.0393C209.554 84.366 219.449 81.6009 224.554 82.8045C225.329 82.9854 225.987 83.26 226.501 83.6425C228.088 84.8234 229.122 86.1993 229.714 87.5781C231.243 91.1586 229.8 94.8167 227.186 95.4559Z" fill="#A03732"/>
<path d="M236.822 87.8271C236.462 88.3318 235.849 88.7741 235.055 89.1443C229.366 91.81 215.748 85.9114 216.398 81.9635C216.626 80.5734 217.704 80.5819 218.544 78.3121C219.197 76.5488 219.667 74.8973 219.645 73.2818C219.638 72.5883 219.531 71.8994 219.326 71.2364C218.814 69.5887 218.343 66.9391 218.045 64.1153C217.536 59.3057 217.919 54.4307 219.062 52.7205C219.224 52.4791 228.622 49.8342 235.918 52.2215C235.918 52.2215 236.495 60.7375 234.828 69.6237C234.603 70.8084 234.709 72.0317 235.134 73.1606C236.459 76.6795 239.075 84.6662 236.822 87.8271Z" fill="#0052B4"/>
<path d="M222.432 71.3589C223.415 68.2727 223.7 64.4461 221.7 60.4916C220.258 61.4555 219.014 62.6861 218.038 64.1165C218.337 66.9404 218.807 69.59 219.32 71.2377C219.53 71.9179 219.637 72.6254 219.638 73.3371C219.638 73.3778 219.638 73.4176 219.638 73.4583C219.638 73.553 219.638 73.6429 219.632 73.7357C219.632 73.7755 219.632 73.8153 219.632 73.8541C219.625 73.9753 219.617 74.0975 219.604 74.2187C219.604 74.2585 219.596 74.2982 219.592 74.3371C219.582 74.4318 219.571 74.5179 219.558 74.6088C219.553 74.6552 219.546 74.7035 219.538 74.749C219.522 74.8598 219.504 74.9696 219.485 75.0804C219.478 75.1211 219.469 75.1619 219.461 75.2035C219.442 75.2982 219.422 75.4033 219.4 75.5028C219.39 75.553 219.379 75.6031 219.367 75.6533C219.346 75.748 219.325 75.8333 219.302 75.9242C219.292 75.9658 219.282 76.0065 219.272 76.0482C219.241 76.1704 219.207 76.2925 219.177 76.4156C219.163 76.4658 219.148 76.516 219.133 76.5671C219.108 76.6533 219.082 76.7404 219.055 76.8276L219.01 76.9743C218.971 77.0993 218.93 77.2243 218.888 77.3531L218.846 77.4791C218.812 77.5738 218.779 77.6751 218.744 77.7736L218.695 77.9118C218.648 78.0454 218.6 78.1798 218.549 78.3162C217.708 80.5889 215.687 81.7442 215.693 82.889C215.702 85.8492 229.377 91.8141 235.065 89.1484C221.792 91.1929 222.43 71.4422 222.432 71.3589Z" fill="#4395F2"/>
<path d="M220.078 39.1619C220.078 39.1619 220.794 44.3408 224.791 46.2233C224.791 46.2233 222.181 40.2234 223.503 39.0785C224.826 37.9337 220.078 39.1619 220.078 39.1619Z" fill="#1C468A"/>
<path d="M224.019 43.5462C224.019 43.5462 224.705 42.1428 225.341 42.4099C225.978 42.6769 225.097 44.9458 224.675 44.9203C224.253 44.8947 224.019 43.5462 224.019 43.5462Z" fill="#FFB27D"/>
<path d="M223.219 60.8495C222.154 61.6336 220.319 65.8049 217.758 68.7395C217.754 68.7459 217.749 68.7519 217.744 68.7575C217.277 69.3 216.763 69.8015 216.209 70.2566C211.953 73.6912 208.714 72.7613 208.714 72.7613C206.55 71.5615 205.858 69.0842 205.65 67.4034C205.575 66.8337 205.548 66.2589 205.567 65.6847C205.567 65.6847 210.87 66.6572 211.416 66.5833C211.963 66.5095 217.362 53.932 218.096 53.182C219.683 51.5655 226.192 51.1621 226.192 51.1621C227.914 50.431 224.488 59.9129 223.219 60.8495Z" fill="#0052B4"/>
<path d="M217.759 68.7401C217.755 68.7464 217.75 68.7524 217.745 68.7581C217.277 69.3005 216.764 69.802 216.21 70.2571C211.954 73.6917 208.715 72.7618 208.715 72.7618C206.551 71.562 205.859 69.0848 205.651 67.4039C206.338 68.063 211.293 72.4503 217.759 68.7401Z" fill="#4395F2"/>
<path d="M240.975 51.9147C238.057 49.7726 234.967 47.1647 235.594 44.9242C237.049 39.7311 232.787 33.43 228.36 35.288C225.98 36.2861 224.052 49.3276 227.329 52.9165C227.039 52.1931 226.719 50.9137 226.587 48.641C226.608 48.8655 226.907 51.7357 227.84 53.3758C232.616 59.6958 224.017 59.7659 227.49 65.5073C227.49 65.5073 227.786 67.4959 235.658 65.3245C237.046 64.9472 238.289 64.1668 239.228 63.0831C239.885 62.3198 240.483 61.3928 240.561 60.4932C240.531 61.8021 240.126 63.0753 239.393 64.1626C241.792 63.3104 243.353 60.8956 243.676 58.1248C243.925 56.0519 243.437 53.7224 240.975 51.9147Z" fill="#1C468A"/>
<path d="M240.262 97.3426H206.409C206.409 97.3426 207.197 94.0462 226.803 94.5367C228.36 94.5765 229.737 94.6418 230.956 94.7261C240.589 95.406 240.262 97.3426 240.262 97.3426Z" fill="#E5BD9E"/>
<path d="M214.479 126.95C218.417 109.336 217.404 98.5313 217.399 98.3959C217.39 98.1241 217.955 97.8779 218.256 97.8694C218.557 97.8609 219.924 97.7898 220.081 98.0218C220.286 98.3258 221.08 111.64 215.212 126.95H214.479Z" fill="#A06B47"/>
<path d="M205.141 126.95C209.078 109.336 208.066 98.5313 208.061 98.3959C208.05 98.1241 208.616 97.8779 208.918 97.8694C209.219 97.8609 210.584 97.7898 210.741 98.0218C210.948 98.3258 211.741 111.64 205.873 126.95H205.141Z" fill="#A06B47"/>
<path d="M240.772 97.8688C240.772 98.0073 240.718 98.1405 240.621 98.2393C240.523 98.3381 240.39 98.3945 240.251 98.3963H206.212C206.144 98.3964 206.076 98.3828 206.013 98.3561C205.95 98.3294 205.893 98.2902 205.846 98.241C205.773 98.1676 205.723 98.0746 205.703 97.9735C205.683 97.8724 205.693 97.7676 205.732 97.6721C205.771 97.5766 205.837 97.4946 205.923 97.4361C206.008 97.3777 206.109 97.3454 206.212 97.3433H240.251C240.32 97.3436 240.387 97.3575 240.45 97.3841C240.514 97.4108 240.571 97.4497 240.618 97.4986C240.717 97.597 240.772 97.7301 240.772 97.8688Z" fill="#CE9A78"/>
<path d="M232.002 97.3426H206.406C206.406 97.3426 207.196 94.0462 226.863 94.5367C228.425 94.5765 229.807 94.6418 231.029 94.7261C230.968 95.138 230.866 96.4789 232.002 97.3426Z" fill="#D6A685"/>
<path d="M240.772 97.8688C240.771 98.0086 240.715 98.1424 240.616 98.2412C240.517 98.3401 240.382 98.3958 240.242 98.3963H222.079C222.009 98.3965 221.941 98.3828 221.877 98.3562C221.812 98.3295 221.754 98.2903 221.706 98.241C221.631 98.1677 221.58 98.074 221.56 97.9719C221.539 97.8697 221.549 97.7637 221.589 97.6674C221.629 97.5711 221.697 97.4888 221.784 97.4311C221.872 97.3734 221.974 97.3428 222.079 97.3433H240.242C240.382 97.3438 240.516 97.3996 240.616 97.4986C240.665 97.547 240.704 97.6047 240.731 97.6682C240.758 97.7317 240.772 97.7999 240.772 97.8688Z" fill="#7C4F31"/>
<path d="M239.717 97.9338H239.725C240.03 97.9338 240.273 97.7065 240.269 97.4357C239.959 78.1272 247.39 63.2808 247.465 63.133C247.59 62.8859 247.567 62.3348 246.765 62.2637C246.066 62.2031 245.631 62.3584 245.506 62.6037C245.487 62.6406 243.829 66.1737 241.984 72.3148C240.286 77.9766 238.998 87.2474 239.162 97.4499C239.17 97.7188 239.417 97.9338 239.717 97.9338Z" fill="#7C4F31"/>
<path d="M223.148 97.9338H223.156C223.461 97.9338 223.703 97.7065 223.7 97.4357C223.39 78.1272 230.821 63.2808 230.896 63.133C231.02 62.8859 230.997 62.3348 230.196 62.2637C229.496 62.2031 229.062 62.3584 228.937 62.6037C228.918 62.6406 227.26 66.1737 225.415 72.3148C223.718 77.9766 222.43 87.2474 222.594 97.4499C222.601 97.7188 222.848 97.9338 223.148 97.9338Z" fill="#7C4F31"/>
<path d="M244.625 69.0633C244.749 69.0678 244.87 69.0296 244.969 68.955C245.068 68.8805 245.138 68.7742 245.167 68.6542C245.219 68.3872 245.018 68.1334 244.717 68.086C244.241 68.0131 232.971 66.3228 227.926 67.7328C227.64 67.8143 227.474 68.0898 227.565 68.3483C227.619 68.4782 227.72 68.5832 227.848 68.6428C227.976 68.7024 228.122 68.7122 228.256 68.6703C233.047 67.3303 244.417 69.0368 244.533 69.0538C244.564 69.0592 244.594 69.0624 244.625 69.0633Z" fill="#7C4F31"/>
<path d="M243.338 72.3148C243.462 72.3193 243.584 72.2811 243.683 72.2065C243.782 72.132 243.852 72.0257 243.881 71.9057C243.932 71.6387 243.731 71.3849 243.431 71.3375C242.955 71.2646 231.684 69.5734 226.64 70.9843C226.349 71.0658 226.188 71.3413 226.279 71.6008C226.333 71.7305 226.434 71.8353 226.562 71.8947C226.69 71.9541 226.835 71.9638 226.97 71.9218C231.763 70.5809 243.131 72.2883 243.247 72.3006C243.277 72.3076 243.308 72.3123 243.338 72.3148Z" fill="#7C4F31"/>
<path d="M243.131 126.95C239.194 109.336 240.206 98.5313 240.212 98.3959C240.221 98.1241 239.656 97.8779 239.355 97.8694C239.054 97.8609 237.689 97.7898 237.531 98.0218C237.325 98.3258 236.532 111.64 242.4 126.95H243.131Z" fill="#7C4F31"/>
<path d="M227.784 126.95C223.847 109.123 224.859 98.1851 224.863 98.0468C224.874 97.7722 224.308 97.5232 224.007 97.5146C223.705 97.5061 222.34 97.4332 222.182 97.668C221.976 97.9758 221.183 111.454 227.052 126.95H227.784Z" fill="#7C4F31"/>
<path d="M192.275 63.1034L192.508 63.5854C192.508 63.5854 197.709 62.1792 199.361 62.2502C199.36 62.2502 195.672 61.0267 192.275 63.1034Z" fill="#C7DCF2"/>
<path d="M199.361 62.2507L205.32 60.0537L205.216 59.7924C205.216 59.7924 200.638 60.0537 199.361 62.2507Z" fill="#ADC7E0"/>
<path d="M200.587 63.1701C200.587 63.1701 200.48 61.5934 199.546 61.0252C199.133 60.8037 198.795 60.6351 198.567 60.5262C198.524 60.5066 198.476 60.4985 198.429 60.5029C198.382 60.5072 198.337 60.5238 198.299 60.5509C198.26 60.5781 198.229 60.6149 198.21 60.6575C198.19 60.7002 198.182 60.7474 198.186 60.7942C198.212 61.011 198.313 61.212 198.472 61.3624C198.948 61.8415 199.071 62.6389 199.071 62.6389L200.587 63.1701Z" fill="#FFB27D"/>
</svg>
